<svg width="26" height="26" viewBox="0 0 26 26" fill="none" xmlns="http://www.w3.org/2000/svg">
<path opacity="0.4" d="M18.5225 0H7.32375C2.945 0 0 3.07417 0 7.64667V18.1996C0 22.7592 2.945 25.8333 7.32375 25.8333H18.5225C22.9012 25.8333 25.8333 22.7592 25.8333 18.1996V7.64667C25.8333 3.07417 22.9012 0 18.5225 0Z" fill="white"/>
<path d="M11.3835 17.112C11.0941 17.112 10.8048 17.0022 10.5839 16.7813L7.51881 13.7162C7.07706 13.2745 7.07706 12.5589 7.51881 12.1184C7.96056 11.6767 8.67485 11.6754 9.1166 12.1171L11.3835 14.384L16.7155 9.05202C17.1572 8.61027 17.8715 8.61027 18.3133 9.05202C18.755 9.49377 18.755 10.2093 18.3133 10.6511L12.183 16.7813C11.9621 17.0022 11.6728 17.112 11.3835 17.112Z" fill="white"/>
</svg>
