<svg width="9" height="10" viewBox="0 0 9 10" fill="none" xmlns="http://www.w3.org/2000/svg">
<g clip-path="url(#clip0_104_22769)">
<path d="M4.49976 9.50006C6.98504 9.50006 8.99976 7.48534 8.99976 5.00006C8.99976 2.51478 6.98504 0.500061 4.49976 0.500061C2.01447 0.500061 -0.000244141 2.51478 -0.000244141 5.00006C-0.000244141 7.48534 2.01447 9.50006 4.49976 9.50006Z" fill="#F0F0F0"/>
<path d="M8.7201 6.5652C8.901 6.07771 9 5.55043 9 4.99999C9 4.44955 8.901 3.92228 8.7201 3.43478H0.279896C0.0990176 3.92228 0 4.44955 0 4.99999C0 5.55043 0.0990176 6.07771 0.279896 6.5652L4.5 6.95651L8.7201 6.5652Z" fill="#0052B4"/>
<path d="M4.49989 9.50001C6.43473 9.50001 8.08417 8.27882 8.71999 6.56522H0.279785C0.915604 8.27882 2.56505 9.50001 4.49989 9.50001Z" fill="#D80027"/>
</g>
<defs>
<clipPath id="clip0_104_22769">
<rect width="9" height="9" fill="white" transform="translate(0 0.5)"/>
</clipPath>
</defs>
</svg>
