<svg width="1141" height="346" viewBox="0 0 1141 346" fill="none" xmlns="http://www.w3.org/2000/svg">
<g opacity="0.5">
<path d="M-36.809 14.3587L-31.742 19.4684L-31.7954 25.0154L-18.0239 38.5949L1.19858 38.7015L1.09192 19.4684L-4.00705 14.3587L1.09192 9.24909L1.19858 -9.97339L-18.0239 -9.86671L-31.7634 3.87279L-31.742 9.24909L-36.809 14.3587Z" stroke="white" stroke-opacity="0.1" stroke-width="2.3388" stroke-miterlimit="10"/>
<path d="M69.7787 14.3587L64.7118 9.24909L64.7758 3.71275L51.0043 -9.86671L31.7711 -9.97339L31.8778 9.24909L36.9874 14.3694L31.8778 19.4684L31.7711 38.7015L51.0043 38.5949L64.7331 24.8554L64.7118 19.4684L69.7787 14.3587Z" stroke="white" stroke-opacity="0.1" stroke-width="2.3388" stroke-miterlimit="10"/>
<path d="M40.6357 14.3587L45.7027 19.4684L45.6387 25.0154L59.4102 38.5949L78.6434 38.7015L78.5367 19.4684L73.427 14.3587L78.5367 9.24909L78.6434 -9.97339L59.4102 -9.86671L45.6707 3.87279L45.7027 9.24909L40.6357 14.3587Z" stroke="white" stroke-opacity="0.1" stroke-width="2.3388" stroke-miterlimit="10"/>
<path d="M16.6556 38.3493L11.5459 43.4163L5.9989 43.3523L-7.58057 57.1238L-7.67657 76.3463L11.5459 76.2396L16.6556 71.1406L21.7652 76.2396L40.9877 76.3463L40.881 57.1238L27.1522 43.3843L21.7652 43.4163L16.6556 38.3493Z" stroke="white" stroke-opacity="0.1" stroke-width="2.3388" stroke-miterlimit="10"/>
<path d="M16.6556 67.4817L21.7652 62.4147L27.3122 62.4787L40.881 48.7072L40.9877 29.4847L21.7652 29.5807L16.6556 34.6904L11.5459 29.5807L-7.67657 29.4847L-7.58057 48.7072L6.15892 62.4467L11.5459 62.4147L16.6556 67.4817Z" stroke="white" stroke-opacity="0.1" stroke-width="2.3388" stroke-miterlimit="10"/>
<path d="M147.223 14.3587L142.146 9.24909L142.21 3.71275L128.438 -9.86671L109.216 -9.97339L109.322 9.24909L114.421 14.3694L109.322 19.4684L109.216 38.7015L128.438 38.5949L142.178 24.8554L142.146 19.4684L147.223 14.3587Z" stroke="white" stroke-opacity="0.1" stroke-width="2.3388" stroke-miterlimit="10"/>
<path d="M118.08 14.3587L123.147 19.4684L123.083 25.0154L136.854 38.5949L156.077 38.7015L155.981 19.4684L150.871 14.3587L155.981 9.24909L156.077 -9.97339L136.854 -9.86671L123.115 3.87279L123.147 9.24909L118.08 14.3587Z" stroke="white" stroke-opacity="0.1" stroke-width="2.3388" stroke-miterlimit="10"/>
<path d="M94.0998 38.3493L88.9901 43.4163L83.4431 43.3523L69.8636 57.1238L69.757 76.3463L88.9901 76.2396L94.0998 71.1406L99.1987 76.2396L118.432 76.3463L118.325 57.1238L104.586 43.3843L99.2094 43.4163L94.0998 38.3493Z" stroke="white" stroke-opacity="0.1" stroke-width="2.3388" stroke-miterlimit="10"/>
<path d="M94.0998 67.4817L99.2094 62.4147L104.746 62.4787L118.325 48.7072L118.432 29.4847L99.1987 29.5807L94.0891 34.6904L88.9901 29.5807L69.757 29.4847L69.8636 48.7072L83.6031 62.4467L88.9901 62.4147L94.0998 67.4817Z" stroke="white" stroke-opacity="0.1" stroke-width="2.3388" stroke-miterlimit="10"/>
<path d="M224.656 14.3589L219.59 9.24921L219.654 3.71287L205.882 -9.86659L186.66 -9.97327L186.756 9.24921L191.865 14.3695L186.756 19.4685L186.66 38.7017L205.882 38.595L219.622 24.8555L219.59 19.4685L224.656 14.3589Z" stroke="white" stroke-opacity="0.1" stroke-width="2.3388" stroke-miterlimit="10"/>
<path d="M195.524 14.3589L200.591 19.4685L200.527 25.0155L214.299 38.595L233.521 38.7017L233.414 19.4685L228.315 14.3589L233.414 9.24921L233.521 -9.97327L214.299 -9.86659L200.559 3.87291L200.591 9.24921L195.524 14.3589Z" stroke="white" stroke-opacity="0.1" stroke-width="2.3388" stroke-miterlimit="10"/>
<path d="M171.534 38.3494L166.424 43.4164L160.888 43.3524L147.308 57.1239L147.201 76.3464L166.424 76.2397L171.544 71.1408L176.643 76.2397L195.876 76.3464L195.77 57.1239L182.03 43.3844L176.643 43.4164L171.534 38.3494Z" stroke="white" stroke-opacity="0.1" stroke-width="2.3388" stroke-miterlimit="10"/>
<path d="M171.534 67.4818L176.643 62.4148L182.19 62.4788L195.77 48.7073L195.876 29.4848L176.643 29.5808L171.534 34.6905L166.424 29.5808L147.201 29.4848L147.308 48.7073L161.048 62.4468L166.424 62.4148L171.534 67.4818Z" stroke="white" stroke-opacity="0.1" stroke-width="2.3388" stroke-miterlimit="10"/>
<path d="M-36.809 91.9206L-31.742 97.0303L-31.7954 102.577L-18.0239 116.157L1.19858 116.253L1.09192 97.0303L-4.00705 91.9206L1.09192 86.811L1.19858 67.5885L-18.0239 67.6952L-31.7634 81.424L-31.742 86.811L-36.809 91.9206Z" stroke="white" stroke-opacity="0.1" stroke-width="2.3388" stroke-miterlimit="10"/>
<path d="M69.7787 91.9206L64.7118 86.811L64.7758 81.264L51.0043 67.6952L31.7711 67.5885L31.8778 86.811L36.9874 91.9206L31.8778 97.0303L31.7711 116.253L51.0043 116.157L64.7331 102.417L64.7118 97.0303L69.7787 91.9206Z" stroke="white" stroke-opacity="0.1" stroke-width="2.3388" stroke-miterlimit="10"/>
<path d="M40.6357 91.9206L45.7027 97.0303L45.6387 102.577L59.4102 116.157L78.6434 116.253L78.5367 97.0303L73.427 91.9206L78.5367 86.811L78.6434 67.5885L59.4102 67.6952L45.6707 81.424L45.7027 86.811L40.6357 91.9206Z" stroke="white" stroke-opacity="0.1" stroke-width="2.3388" stroke-miterlimit="10"/>
<path d="M16.6556 115.901L11.5459 120.968L5.9989 120.914L-7.58057 134.675L-7.67657 153.908L11.5459 153.802L16.6556 148.703L21.7652 153.802L40.9877 153.908L40.881 134.675L27.1522 120.946L21.7652 120.968L16.6556 115.901Z" stroke="white" stroke-opacity="0.1" stroke-width="2.3388" stroke-miterlimit="10"/>
<path d="M16.6556 145.044L21.7652 139.977L27.3122 140.041L40.881 126.27L40.9877 107.047L21.7652 107.143L16.6556 112.253L11.5459 107.143L-7.67657 107.047L-7.58057 126.27L6.15892 140.009L11.5459 139.977L16.6556 145.044Z" stroke="white" stroke-opacity="0.1" stroke-width="2.3388" stroke-miterlimit="10"/>
<path d="M147.223 91.9206L142.146 86.811L142.21 81.264L128.438 67.6952L109.216 67.5885L109.322 86.811L114.421 91.9206L109.322 97.0303L109.216 116.253L128.438 116.157L142.178 102.417L142.146 97.0303L147.223 91.9206Z" stroke="white" stroke-opacity="0.1" stroke-width="2.3388" stroke-miterlimit="10"/>
<path d="M118.08 91.9206L123.147 97.0303L123.083 102.577L136.854 116.157L156.077 116.253L155.981 97.0303L150.871 91.9206L155.981 86.811L156.077 67.5885L136.854 67.6952L123.115 81.424L123.147 86.811L118.08 91.9206Z" stroke="white" stroke-opacity="0.1" stroke-width="2.3388" stroke-miterlimit="10"/>
<path d="M94.0998 115.901L88.9901 120.968L83.4431 120.914L69.8636 134.675L69.757 153.908L88.9901 153.802L94.0998 148.703L99.1987 153.802L118.432 153.908L118.325 134.675L104.586 120.946L99.2094 120.968L94.0998 115.901Z" stroke="white" stroke-opacity="0.1" stroke-width="2.3388" stroke-miterlimit="10"/>
<path d="M94.0998 145.044L99.2094 139.977L104.746 140.041L118.325 126.27L118.432 107.047L99.1987 107.143L94.0891 112.253L88.9901 107.143L69.757 107.047L69.8636 126.27L83.6031 140.009L88.9901 139.977L94.0998 145.044Z" stroke="white" stroke-opacity="0.1" stroke-width="2.3388" stroke-miterlimit="10"/>
<path d="M224.656 91.9207L219.59 86.8111L219.654 81.2641L205.882 67.6953L186.66 67.5886L186.756 86.8111L191.865 91.9207L186.756 97.0304L186.66 116.253L205.882 116.157L219.622 102.417L219.59 97.0304L224.656 91.9207Z" stroke="white" stroke-opacity="0.1" stroke-width="2.3388" stroke-miterlimit="10"/>
<path d="M195.524 91.9207L200.591 97.0304L200.527 102.577L214.299 116.157L233.521 116.253L233.414 97.0304L228.315 91.9207L233.414 86.8111L233.521 67.5886L214.299 67.6953L200.559 81.4241L200.591 86.8111L195.524 91.9207Z" stroke="white" stroke-opacity="0.1" stroke-width="2.3388" stroke-miterlimit="10"/>
<path d="M171.534 115.901L166.424 120.968L160.888 120.914L147.308 134.675L147.201 153.908L166.424 153.802L171.544 148.703L176.643 153.802L195.876 153.908L195.77 134.675L182.03 120.946L176.643 120.968L171.534 115.901Z" stroke="white" stroke-opacity="0.1" stroke-width="2.3388" stroke-miterlimit="10"/>
<path d="M171.534 145.044L176.643 139.977L182.19 140.041L195.77 126.27L195.876 107.047L176.643 107.143L171.534 112.253L166.424 107.143L147.201 107.047L147.308 126.27L161.048 140.009L166.424 139.977L171.534 145.044Z" stroke="white" stroke-opacity="0.1" stroke-width="2.3388" stroke-miterlimit="10"/>
<path d="M-36.809 170.187L-31.742 175.297L-31.7954 180.833L-18.0239 194.412L1.19858 194.519L1.09192 175.286L-4.00705 170.176L1.09192 165.077L1.19858 145.844L-18.0239 145.951L-31.7634 159.69L-31.742 165.077L-36.809 170.187Z" stroke="white" stroke-opacity="0.1" stroke-width="2.3388" stroke-miterlimit="10"/>
<path d="M69.7787 170.187L64.7118 165.077L64.7758 159.53L51.0043 145.951L31.7711 145.844L31.8778 165.077L36.9874 170.187L31.8778 175.286L31.7711 194.519L51.0043 194.412L64.7331 180.673L64.7118 175.297L69.7787 170.187Z" stroke="white" stroke-opacity="0.1" stroke-width="2.3388" stroke-miterlimit="10"/>
<path d="M40.6357 170.187L45.7027 175.297L45.6387 180.833L59.4102 194.412L78.6434 194.519L78.5367 175.286L73.427 170.176L78.5367 165.077L78.6434 145.844L59.4102 145.951L45.6707 159.69L45.7027 165.077L40.6357 170.187Z" stroke="white" stroke-opacity="0.1" stroke-width="2.3388" stroke-miterlimit="10"/>
<path d="M16.6556 194.167L11.5459 199.234L5.9989 199.17L-7.58057 212.941L-7.67657 232.164L11.5459 232.068L16.6556 226.958L21.7652 232.068L40.9877 232.164L40.881 212.941L27.1522 199.202L21.7652 199.234L16.6556 194.167Z" stroke="white" stroke-opacity="0.1" stroke-width="2.3388" stroke-miterlimit="10"/>
<path d="M16.6556 223.31L21.7652 218.243L27.3122 218.296L40.881 204.525L40.9877 185.302L21.7652 185.409L16.6556 190.508L11.5459 185.409L-7.67657 185.302L-7.58057 204.525L6.15892 218.264L11.5459 218.243L16.6556 223.31Z" stroke="white" stroke-opacity="0.1" stroke-width="2.3388" stroke-miterlimit="10"/>
<path d="M147.223 170.187L142.146 165.077L142.21 159.53L128.438 145.951L109.216 145.844L109.322 165.077L114.421 170.187L109.322 175.286L109.216 194.519L128.438 194.412L142.178 180.673L142.146 175.297L147.223 170.187Z" stroke="white" stroke-opacity="0.1" stroke-width="2.3388" stroke-miterlimit="10"/>
<path d="M118.08 170.187L123.147 175.297L123.083 180.833L136.854 194.412L156.077 194.519L155.981 175.286L150.871 170.176L155.981 165.077L156.077 145.844L136.854 145.951L123.115 159.69L123.147 165.077L118.08 170.187Z" stroke="white" stroke-opacity="0.1" stroke-width="2.3388" stroke-miterlimit="10"/>
<path d="M94.0998 194.167L88.9901 199.234L83.4431 199.17L69.8636 212.941L69.757 232.164L88.9901 232.068L94.0998 226.958L99.1987 232.068L118.432 232.164L118.325 212.941L104.586 199.202L99.2094 199.234L94.0998 194.167Z" stroke="white" stroke-opacity="0.1" stroke-width="2.3388" stroke-miterlimit="10"/>
<path d="M94.0998 223.31L99.2094 218.243L104.746 218.296L118.325 204.525L118.432 185.302L99.1987 185.409L94.0891 190.508L88.9901 185.409L69.757 185.302L69.8636 204.525L83.6031 218.264L88.9901 218.243L94.0998 223.31Z" stroke="white" stroke-opacity="0.1" stroke-width="2.3388" stroke-miterlimit="10"/>
<path d="M224.656 170.187L219.59 165.077L219.654 159.53L205.882 145.951L186.66 145.844L186.756 165.077L191.865 170.187L186.756 175.286L186.66 194.519L205.882 194.412L219.622 180.673L219.59 175.297L224.656 170.187Z" stroke="white" stroke-opacity="0.1" stroke-width="2.3388" stroke-miterlimit="10"/>
<path d="M195.524 170.187L200.591 175.297L200.527 180.833L214.299 194.412L233.521 194.519L233.414 175.286L228.315 170.176L233.414 165.077L233.521 145.844L214.299 145.951L200.559 159.69L200.591 165.077L195.524 170.187Z" stroke="white" stroke-opacity="0.1" stroke-width="2.3388" stroke-miterlimit="10"/>
<path d="M171.534 194.167L166.424 199.234L160.888 199.17L147.308 212.941L147.201 232.164L166.424 232.068L171.544 226.958L176.643 232.068L195.876 232.164L195.77 212.941L182.03 199.202L176.643 199.234L171.534 194.167Z" stroke="white" stroke-opacity="0.1" stroke-width="2.3388" stroke-miterlimit="10"/>
<path d="M171.534 223.31L176.643 218.243L182.19 218.296L195.77 204.525L195.876 185.302L176.643 185.409L171.534 190.508L166.424 185.409L147.201 185.302L147.308 204.525L161.048 218.264L166.424 218.243L171.534 223.31Z" stroke="white" stroke-opacity="0.1" stroke-width="2.3388" stroke-miterlimit="10"/>
<path d="M-36.809 247.738L-31.742 252.858L-31.7954 258.395L-18.0239 271.974L1.19858 272.081L1.09192 252.848L-4.00705 247.738L1.09192 242.639L1.19858 223.406L-18.0239 223.513L-31.7634 237.252L-31.742 242.629L-36.809 247.738Z" stroke="white" stroke-opacity="0.1" stroke-width="2.3388" stroke-miterlimit="10"/>
<path d="M69.7787 247.738L64.7118 242.629L64.7758 237.092L51.0043 223.513L31.7711 223.406L31.8778 242.639L36.9874 247.749L31.8778 252.848L31.7711 272.081L51.0043 271.974L64.7331 258.235L64.7118 252.858L69.7787 247.738Z" stroke="white" stroke-opacity="0.1" stroke-width="2.3388" stroke-miterlimit="10"/>
<path d="M40.6357 247.738L45.7027 252.858L45.6387 258.395L59.4102 271.974L78.6434 272.081L78.5367 252.848L73.427 247.738L78.5367 242.639L78.6434 223.406L59.4102 223.513L45.6707 237.252L45.7027 242.629L40.6357 247.738Z" stroke="white" stroke-opacity="0.1" stroke-width="2.3388" stroke-miterlimit="10"/>
<path d="M16.6556 271.729L11.5459 276.796L5.9989 276.732L-7.58057 290.503L-7.67657 309.726L11.5459 309.619L16.6556 304.52L21.7652 309.619L40.9877 309.726L40.881 290.503L27.1522 276.764L21.7652 276.796L16.6556 271.729Z" stroke="white" stroke-opacity="0.1" stroke-width="2.3388" stroke-miterlimit="10"/>
<path d="M16.6556 300.862L21.7652 295.795L27.3122 295.859L40.881 282.087L40.9877 262.865L21.7652 262.971L16.6556 268.07L11.5459 262.971L-7.67657 262.865L-7.58057 282.087L6.15892 295.827L11.5459 295.795L16.6556 300.862Z" stroke="white" stroke-opacity="0.1" stroke-width="2.3388" stroke-miterlimit="10"/>
<path d="M147.223 247.738L142.146 242.629L142.21 237.092L128.438 223.513L109.216 223.406L109.322 242.639L114.421 247.749L109.322 252.848L109.216 272.081L128.438 271.974L142.178 258.235L142.146 252.858L147.223 247.738Z" stroke="white" stroke-opacity="0.1" stroke-width="2.3388" stroke-miterlimit="10"/>
<path d="M118.08 247.738L123.147 252.858L123.083 258.395L136.854 271.974L156.077 272.081L155.981 252.848L150.871 247.738L155.981 242.639L156.077 223.406L136.854 223.513L123.115 237.252L123.147 242.629L118.08 247.738Z" stroke="white" stroke-opacity="0.1" stroke-width="2.3388" stroke-miterlimit="10"/>
<path d="M94.0998 271.729L88.9901 276.796L83.4431 276.732L69.8636 290.503L69.757 309.726L88.9901 309.619L94.0998 304.52L99.1987 309.619L118.432 309.726L118.325 290.503L104.586 276.764L99.2094 276.796L94.0998 271.729Z" stroke="white" stroke-opacity="0.1" stroke-width="2.3388" stroke-miterlimit="10"/>
<path d="M94.0998 300.862L99.2094 295.795L104.746 295.859L118.325 282.087L118.432 262.865L99.1987 262.971L94.0891 268.07L88.9901 262.971L69.757 262.865L69.8636 282.087L83.6031 295.827L88.9901 295.795L94.0998 300.862Z" stroke="white" stroke-opacity="0.1" stroke-width="2.3388" stroke-miterlimit="10"/>
<path d="M224.656 247.738L219.59 242.628L219.654 237.092L205.882 223.513L186.66 223.406L186.756 242.639L191.865 247.749L186.756 252.848L186.66 272.081L205.882 271.974L219.622 258.235L219.59 252.858L224.656 247.738Z" stroke="white" stroke-opacity="0.1" stroke-width="2.3388" stroke-miterlimit="10"/>
<path d="M195.524 247.738L200.591 252.858L200.527 258.395L214.299 271.974L233.521 272.081L233.414 252.848L228.315 247.738L233.414 242.639L233.521 223.406L214.299 223.513L200.559 237.252L200.591 242.628L195.524 247.738Z" stroke="white" stroke-opacity="0.1" stroke-width="2.3388" stroke-miterlimit="10"/>
<path d="M171.534 271.729L166.424 276.796L160.888 276.732L147.308 290.503L147.201 309.726L166.424 309.619L171.544 304.52L176.643 309.619L195.876 309.726L195.77 290.503L182.03 276.764L176.643 276.796L171.534 271.729Z" stroke="white" stroke-opacity="0.1" stroke-width="2.3388" stroke-miterlimit="10"/>
<path d="M171.534 300.861L176.643 295.794L182.19 295.858L195.77 282.087L195.876 262.865L176.643 262.971L171.534 268.07L166.424 262.971L147.201 262.865L147.308 282.087L161.048 295.826L166.424 295.794L171.534 300.861Z" stroke="white" stroke-opacity="0.1" stroke-width="2.3388" stroke-miterlimit="10"/>
<path d="M301.782 14.3587L296.715 9.24909L296.779 3.71275L283.008 -9.86671L263.785 -9.97339L263.892 9.24909L268.991 14.3694L263.892 19.4684L263.785 38.7015L283.008 38.5949L296.747 24.8554L296.715 19.4684L301.782 14.3587Z" stroke="white" stroke-opacity="0.1" stroke-width="2.3388" stroke-miterlimit="10"/>
<path d="M272.649 14.3587L277.716 19.4684L277.652 25.0154L291.424 38.5949L310.646 38.7015L310.539 19.4684L305.44 14.3587L310.539 9.24909L310.646 -9.97339L291.424 -9.86671L277.684 3.87279L277.716 9.24909L272.649 14.3587Z" stroke="white" stroke-opacity="0.1" stroke-width="2.3388" stroke-miterlimit="10"/>
<path d="M248.659 38.3493L243.549 43.4163L238.013 43.3523L224.433 57.1238L224.326 76.3463L243.56 76.2396L248.669 71.1406L253.768 76.2396L273.001 76.3463L272.895 57.1238L259.155 43.3843L253.768 43.4163L248.659 38.3493Z" stroke="white" stroke-opacity="0.1" stroke-width="2.3388" stroke-miterlimit="10"/>
<path d="M248.659 67.4817L253.768 62.4147L259.315 62.4787L272.895 48.7072L273.001 29.4847L253.768 29.5807L248.659 34.6904L243.56 29.5807L224.326 29.4847L224.433 48.7072L238.173 62.4467L243.549 62.4147L248.659 67.4817Z" stroke="white" stroke-opacity="0.1" stroke-width="2.3388" stroke-miterlimit="10"/>
<path d="M379.227 14.3587L374.16 9.24909L374.224 3.71275L360.452 -9.86671L341.23 -9.97339L341.326 9.24909L346.436 14.3694L341.326 19.4684L341.23 38.7015L360.452 38.5949L374.192 24.8554L374.16 19.4684L379.227 14.3587Z" stroke="white" stroke-opacity="0.1" stroke-width="2.3388" stroke-miterlimit="10"/>
<path d="M350.083 14.3587L355.15 19.4684L355.097 25.0154L368.858 38.5949L388.091 38.7015L387.984 19.4684L382.885 14.3587L387.984 9.24909L388.091 -9.97339L368.858 -9.86671L355.129 3.87279L355.15 9.24909L350.083 14.3587Z" stroke="white" stroke-opacity="0.1" stroke-width="2.3388" stroke-miterlimit="10"/>
<path d="M326.103 38.3493L320.994 43.4163L315.447 43.3523L301.878 57.1238L301.771 76.3463L320.994 76.2396L326.103 71.1406L331.213 76.2396L350.435 76.3463L350.34 57.1238L336.6 43.3843L331.213 43.4163L326.103 38.3493Z" stroke="white" stroke-opacity="0.1" stroke-width="2.3388" stroke-miterlimit="10"/>
<path d="M326.103 67.4817L331.213 62.4147L336.76 62.4787L350.34 48.7072L350.435 29.4847L331.213 29.5807L326.103 34.6904L320.994 29.5807L301.771 29.4847L301.878 48.7072L315.607 62.4467L320.994 62.4147L326.103 67.4817Z" stroke="white" stroke-opacity="0.1" stroke-width="2.3388" stroke-miterlimit="10"/>
<path d="M456.671 14.3587L451.604 9.24909L451.658 3.71275L437.897 -9.86671L418.664 -9.97339L418.77 9.24909L423.88 14.3694L418.77 19.4684L418.664 38.7015L437.897 38.5949L451.626 24.8554L451.604 19.4684L456.671 14.3587Z" stroke="white" stroke-opacity="0.1" stroke-width="2.3388" stroke-miterlimit="10"/>
<path d="M427.528 14.3587L432.595 19.4684L432.531 25.0154L446.303 38.5949L465.536 38.7015L465.429 19.4684L460.319 14.3587L465.429 9.24909L465.536 -9.97339L446.303 -9.86671L432.563 3.87279L432.595 9.24909L427.528 14.3587Z" stroke="white" stroke-opacity="0.1" stroke-width="2.3388" stroke-miterlimit="10"/>
<path d="M403.548 38.3493L398.438 43.4163L392.891 43.3523L379.312 57.1238L379.216 76.3463L398.438 76.2396L403.548 71.1406L408.658 76.2396L427.88 76.3463L427.773 57.1238L414.045 43.3843L408.658 43.4163L403.548 38.3493Z" stroke="white" stroke-opacity="0.1" stroke-width="2.3388" stroke-miterlimit="10"/>
<path d="M403.548 67.4817L408.658 62.4147L414.205 62.4787L427.773 48.7072L427.88 29.4847L408.658 29.5807L403.548 34.6904L398.438 29.5807L379.216 29.4847L379.312 48.7072L393.051 62.4467L398.438 62.4147L403.548 67.4817Z" stroke="white" stroke-opacity="0.1" stroke-width="2.3388" stroke-miterlimit="10"/>
<path d="M534.105 14.3587L529.038 9.24909L529.102 3.71275L515.331 -9.86671L496.108 -9.97339L496.215 9.24909L501.314 14.3694L496.215 19.4684L496.108 38.7015L515.331 38.5949L529.07 24.8554L529.038 19.4684L534.105 14.3587Z" stroke="white" stroke-opacity="0.1" stroke-width="2.3388" stroke-miterlimit="10"/>
<path d="M504.973 14.3587L510.04 19.4684L509.976 25.0154L523.747 38.5949L542.97 38.7015L542.863 19.4684L537.764 14.3587L542.863 9.24909L542.97 -9.97339L523.747 -9.86671L510.008 3.87279L510.04 9.24909L504.973 14.3587Z" stroke="white" stroke-opacity="0.1" stroke-width="2.3388" stroke-miterlimit="10"/>
<path d="M480.982 38.3493L475.872 43.4163L470.336 43.3523L456.757 57.1238L456.65 76.3463L475.883 76.2396L480.993 71.1406L486.092 76.2396L505.325 76.3463L505.218 57.1238L491.479 43.3843L486.102 43.4163L480.982 38.3493Z" stroke="white" stroke-opacity="0.1" stroke-width="2.3388" stroke-miterlimit="10"/>
<path d="M480.982 67.4817L486.102 62.4147L491.639 62.4787L505.218 48.7072L505.325 29.4847L486.092 29.5807L480.982 34.6904L475.883 29.5807L456.65 29.4847L456.757 48.7072L470.496 62.4467L475.872 62.4147L480.982 67.4817Z" stroke="white" stroke-opacity="0.1" stroke-width="2.3388" stroke-miterlimit="10"/>
<path d="M611.55 14.3587L606.483 9.24909L606.547 3.71275L592.776 -9.86671L573.553 -9.97339L573.649 9.24909L578.759 14.3694L573.649 19.4684L573.553 38.7015L592.776 38.5949L606.515 24.8554L606.483 19.4684L611.55 14.3587Z" stroke="white" stroke-opacity="0.1" stroke-width="2.3388" stroke-miterlimit="10"/>
<path d="M582.407 14.3587L587.474 19.4684L587.421 25.0154L601.192 38.5949L620.415 38.7015L620.308 19.4684L615.209 14.3587L620.308 9.24909L620.415 -9.97339L601.192 -9.86671L587.453 3.87279L587.474 9.24909L582.407 14.3587Z" stroke="white" stroke-opacity="0.1" stroke-width="2.3388" stroke-miterlimit="10"/>
<path d="M558.427 38.3493L553.317 43.4163L547.77 43.3523L534.201 57.1238L534.095 76.3463L553.317 76.2396L558.427 71.1406L563.537 76.2396L582.759 76.3463L582.663 57.1238L568.924 43.3843L563.537 43.4163L558.427 38.3493Z" stroke="white" stroke-opacity="0.1" stroke-width="2.3388" stroke-miterlimit="10"/>
<path d="M558.427 67.4817L563.537 62.4147L569.084 62.4787L582.663 48.7072L582.759 29.4847L563.537 29.5807L558.427 34.6904L553.317 29.5807L534.095 29.4847L534.201 48.7072L547.93 62.4467L553.317 62.4147L558.427 67.4817Z" stroke="white" stroke-opacity="0.1" stroke-width="2.3388" stroke-miterlimit="10"/>
<path d="M688.995 14.3587L683.928 9.24909L683.981 3.71275L670.22 -9.86671L650.987 -9.97339L651.094 9.24909L656.203 14.3694L651.094 19.4684L650.987 38.7015L670.22 38.5949L683.949 24.8554L683.928 19.4684L688.995 14.3587Z" stroke="white" stroke-opacity="0.1" stroke-width="2.3388" stroke-miterlimit="10"/>
<path d="M659.852 14.3587L664.919 19.4684L664.855 25.0154L678.626 38.5949L697.859 38.7015L697.753 19.4684L692.643 14.3587L697.753 9.24909L697.859 -9.97339L678.626 -9.86671L664.887 3.87279L664.919 9.24909L659.852 14.3587Z" stroke="white" stroke-opacity="0.1" stroke-width="2.3388" stroke-miterlimit="10"/>
<path d="M635.871 38.3493L630.762 43.4163L625.215 43.3523L611.635 57.1238L611.539 76.3463L630.762 76.2396L635.871 71.1406L640.981 76.2396L660.204 76.3463L660.097 57.1238L646.368 43.3843L640.981 43.4163L635.871 38.3493Z" stroke="white" stroke-opacity="0.1" stroke-width="2.3388" stroke-miterlimit="10"/>
<path d="M635.871 67.4817L640.981 62.4147L646.528 62.4787L660.097 48.7072L660.204 29.4847L640.981 29.5807L635.871 34.6904L630.762 29.5807L611.539 29.4847L611.635 48.7072L625.375 62.4467L630.762 62.4147L635.871 67.4817Z" stroke="white" stroke-opacity="0.1" stroke-width="2.3388" stroke-miterlimit="10"/>
<path d="M301.782 91.9206L296.715 86.811L296.779 81.264L283.008 67.6952L263.785 67.5885L263.892 86.811L268.991 91.9206L263.892 97.0303L263.785 116.253L283.008 116.157L296.747 102.417L296.715 97.0303L301.782 91.9206Z" stroke="white" stroke-opacity="0.1" stroke-width="2.3388" stroke-miterlimit="10"/>
<path d="M272.649 91.9206L277.716 97.0303L277.652 102.577L291.424 116.157L310.646 116.253L310.539 97.0303L305.44 91.9206L310.539 86.811L310.646 67.5885L291.424 67.6952L277.684 81.424L277.716 86.811L272.649 91.9206Z" stroke="white" stroke-opacity="0.1" stroke-width="2.3388" stroke-miterlimit="10"/>
<path d="M248.659 115.901L243.549 120.968L238.013 120.914L224.433 134.675L224.326 153.908L243.56 153.802L248.669 148.703L253.768 153.802L273.001 153.908L272.895 134.675L259.155 120.946L253.768 120.968L248.659 115.901Z" stroke="white" stroke-opacity="0.1" stroke-width="2.3388" stroke-miterlimit="10"/>
<path d="M248.659 145.044L253.768 139.977L259.315 140.041L272.895 126.27L273.001 107.047L253.768 107.143L248.659 112.253L243.56 107.143L224.326 107.047L224.433 126.27L238.173 140.009L243.549 139.977L248.659 145.044Z" stroke="white" stroke-opacity="0.1" stroke-width="2.3388" stroke-miterlimit="10"/>
<path d="M379.227 91.9206L374.16 86.811L374.224 81.264L360.452 67.6952L341.23 67.5885L341.326 86.811L346.436 91.9206L341.326 97.0303L341.23 116.253L360.452 116.157L374.192 102.417L374.16 97.0303L379.227 91.9206Z" stroke="white" stroke-opacity="0.1" stroke-width="2.3388" stroke-miterlimit="10"/>
<path d="M350.083 91.9206L355.15 97.0303L355.097 102.577L368.858 116.157L388.091 116.253L387.984 97.0303L382.885 91.9206L387.984 86.811L388.091 67.5885L368.858 67.6952L355.129 81.424L355.15 86.811L350.083 91.9206Z" stroke="white" stroke-opacity="0.1" stroke-width="2.3388" stroke-miterlimit="10"/>
<path d="M326.103 115.901L320.994 120.968L315.447 120.914L301.878 134.675L301.771 153.908L320.994 153.802L326.103 148.703L331.213 153.802L350.435 153.908L350.34 134.675L336.6 120.946L331.213 120.968L326.103 115.901Z" stroke="white" stroke-opacity="0.1" stroke-width="2.3388" stroke-miterlimit="10"/>
<path d="M326.103 145.044L331.213 139.977L336.76 140.041L350.34 126.27L350.435 107.047L331.213 107.143L326.103 112.253L320.994 107.143L301.771 107.047L301.878 126.27L315.607 140.009L320.994 139.977L326.103 145.044Z" stroke="white" stroke-opacity="0.1" stroke-width="2.3388" stroke-miterlimit="10"/>
<path d="M456.671 91.9206L451.604 86.811L451.658 81.264L437.897 67.6952L418.664 67.5885L418.77 86.811L423.88 91.9206L418.77 97.0303L418.664 116.253L437.897 116.157L451.626 102.417L451.604 97.0303L456.671 91.9206Z" stroke="white" stroke-opacity="0.1" stroke-width="2.3388" stroke-miterlimit="10"/>
<path d="M427.528 91.9206L432.595 97.0303L432.531 102.577L446.303 116.157L465.536 116.253L465.429 97.0303L460.319 91.9206L465.429 86.811L465.536 67.5885L446.303 67.6952L432.563 81.424L432.595 86.811L427.528 91.9206Z" stroke="white" stroke-opacity="0.1" stroke-width="2.3388" stroke-miterlimit="10"/>
<path d="M403.548 115.901L398.438 120.968L392.891 120.914L379.312 134.675L379.216 153.908L398.438 153.802L403.548 148.703L408.658 153.802L427.88 153.908L427.773 134.675L414.045 120.946L408.658 120.968L403.548 115.901Z" stroke="white" stroke-opacity="0.1" stroke-width="2.3388" stroke-miterlimit="10"/>
<path d="M403.548 145.044L408.658 139.977L414.205 140.041L427.773 126.27L427.88 107.047L408.658 107.143L403.548 112.253L398.438 107.143L379.216 107.047L379.312 126.27L393.051 140.009L398.438 139.977L403.548 145.044Z" stroke="white" stroke-opacity="0.1" stroke-width="2.3388" stroke-miterlimit="10"/>
<path d="M534.105 91.9206L529.038 86.811L529.102 81.264L515.331 67.6952L496.108 67.5885L496.215 86.811L501.314 91.9206L496.215 97.0303L496.108 116.253L515.331 116.157L529.07 102.417L529.038 97.0303L534.105 91.9206Z" stroke="white" stroke-opacity="0.1" stroke-width="2.3388" stroke-miterlimit="10"/>
<path d="M504.973 91.9206L510.04 97.0303L509.976 102.577L523.747 116.157L542.97 116.253L542.863 97.0303L537.764 91.9206L542.863 86.811L542.97 67.5885L523.747 67.6952L510.008 81.424L510.04 86.811L504.973 91.9206Z" stroke="white" stroke-opacity="0.1" stroke-width="2.3388" stroke-miterlimit="10"/>
<path d="M480.982 115.901L475.872 120.968L470.336 120.914L456.757 134.675L456.65 153.908L475.883 153.802L480.993 148.703L486.092 153.802L505.325 153.908L505.218 134.675L491.479 120.946L486.102 120.968L480.982 115.901Z" stroke="white" stroke-opacity="0.1" stroke-width="2.3388" stroke-miterlimit="10"/>
<path d="M480.982 145.044L486.102 139.977L491.639 140.041L505.218 126.27L505.325 107.047L486.092 107.143L480.982 112.253L475.883 107.143L456.65 107.047L456.757 126.27L470.496 140.009L475.872 139.977L480.982 145.044Z" stroke="white" stroke-opacity="0.1" stroke-width="2.3388" stroke-miterlimit="10"/>
<path d="M611.55 91.9206L606.483 86.811L606.547 81.264L592.776 67.6952L573.553 67.5885L573.649 86.811L578.759 91.9206L573.649 97.0303L573.553 116.253L592.776 116.157L606.515 102.417L606.483 97.0303L611.55 91.9206Z" stroke="white" stroke-opacity="0.1" stroke-width="2.3388" stroke-miterlimit="10"/>
<path d="M582.407 91.9206L587.474 97.0303L587.421 102.577L601.192 116.157L620.415 116.253L620.308 97.0303L615.209 91.9206L620.308 86.811L620.415 67.5885L601.192 67.6952L587.453 81.424L587.474 86.811L582.407 91.9206Z" stroke="white" stroke-opacity="0.1" stroke-width="2.3388" stroke-miterlimit="10"/>
<path d="M558.427 115.901L553.317 120.968L547.77 120.914L534.201 134.675L534.095 153.908L553.317 153.802L558.427 148.703L563.537 153.802L582.759 153.908L582.663 134.675L568.924 120.946L563.537 120.968L558.427 115.901Z" stroke="white" stroke-opacity="0.1" stroke-width="2.3388" stroke-miterlimit="10"/>
<path d="M558.427 145.044L563.537 139.977L569.084 140.041L582.663 126.27L582.759 107.047L563.537 107.143L558.427 112.253L553.317 107.143L534.095 107.047L534.201 126.27L547.93 140.009L553.317 139.977L558.427 145.044Z" stroke="white" stroke-opacity="0.1" stroke-width="2.3388" stroke-miterlimit="10"/>
<path d="M688.995 91.9206L683.928 86.811L683.981 81.264L670.22 67.6952L650.987 67.5885L651.094 86.811L656.203 91.9206L651.094 97.0303L650.987 116.253L670.22 116.157L683.949 102.417L683.928 97.0303L688.995 91.9206Z" stroke="white" stroke-opacity="0.1" stroke-width="2.3388" stroke-miterlimit="10"/>
<path d="M659.852 91.9206L664.919 97.0303L664.855 102.577L678.626 116.157L697.859 116.253L697.753 97.0303L692.643 91.9206L697.753 86.811L697.859 67.5885L678.626 67.6952L664.887 81.424L664.919 86.811L659.852 91.9206Z" stroke="white" stroke-opacity="0.1" stroke-width="2.3388" stroke-miterlimit="10"/>
<path d="M635.871 115.901L630.762 120.968L625.215 120.914L611.635 134.675L611.539 153.908L630.762 153.802L635.871 148.703L640.981 153.802L660.204 153.908L660.097 134.675L646.368 120.946L640.981 120.968L635.871 115.901Z" stroke="white" stroke-opacity="0.1" stroke-width="2.3388" stroke-miterlimit="10"/>
<path d="M635.871 145.044L640.981 139.977L646.528 140.041L660.097 126.27L660.204 107.047L640.981 107.143L635.871 112.253L630.762 107.143L611.539 107.047L611.635 126.27L625.375 140.009L630.762 139.977L635.871 145.044Z" stroke="white" stroke-opacity="0.1" stroke-width="2.3388" stroke-miterlimit="10"/>
<path d="M301.782 170.187L296.715 165.077L296.779 159.53L283.008 145.951L263.785 145.844L263.892 165.077L268.991 170.187L263.892 175.286L263.785 194.519L283.008 194.412L296.747 180.673L296.715 175.297L301.782 170.187Z" stroke="white" stroke-opacity="0.1" stroke-width="2.3388" stroke-miterlimit="10"/>
<path d="M272.649 170.187L277.716 175.297L277.652 180.833L291.424 194.412L310.646 194.519L310.539 175.286L305.44 170.176L310.539 165.077L310.646 145.844L291.424 145.951L277.684 159.69L277.716 165.077L272.649 170.187Z" stroke="white" stroke-opacity="0.1" stroke-width="2.3388" stroke-miterlimit="10"/>
<path d="M248.659 194.167L243.549 199.234L238.013 199.17L224.433 212.941L224.326 232.164L243.56 232.068L248.669 226.958L253.768 232.068L273.001 232.164L272.895 212.941L259.155 199.202L253.768 199.234L248.659 194.167Z" stroke="white" stroke-opacity="0.1" stroke-width="2.3388" stroke-miterlimit="10"/>
<path d="M248.659 223.31L253.768 218.243L259.315 218.296L272.895 204.525L273.001 185.302L253.768 185.409L248.659 190.508L243.56 185.409L224.326 185.302L224.433 204.525L238.173 218.264L243.549 218.243L248.659 223.31Z" stroke="white" stroke-opacity="0.1" stroke-width="2.3388" stroke-miterlimit="10"/>
<path d="M379.227 170.187L374.16 165.077L374.224 159.53L360.452 145.951L341.23 145.844L341.326 165.077L346.436 170.187L341.326 175.286L341.23 194.519L360.452 194.412L374.192 180.673L374.16 175.297L379.227 170.187Z" stroke="white" stroke-opacity="0.1" stroke-width="2.3388" stroke-miterlimit="10"/>
<path d="M350.083 170.187L355.15 175.297L355.097 180.833L368.858 194.412L388.091 194.519L387.984 175.286L382.885 170.176L387.984 165.077L388.091 145.844L368.858 145.951L355.129 159.69L355.15 165.077L350.083 170.187Z" stroke="white" stroke-opacity="0.1" stroke-width="2.3388" stroke-miterlimit="10"/>
<path d="M326.103 194.167L320.994 199.234L315.447 199.17L301.878 212.941L301.771 232.164L320.994 232.068L326.103 226.958L331.213 232.068L350.435 232.164L350.34 212.941L336.6 199.202L331.213 199.234L326.103 194.167Z" stroke="white" stroke-opacity="0.1" stroke-width="2.3388" stroke-miterlimit="10"/>
<path d="M326.103 223.31L331.213 218.243L336.76 218.296L350.34 204.525L350.435 185.302L331.213 185.409L326.103 190.508L320.994 185.409L301.771 185.302L301.878 204.525L315.607 218.264L320.994 218.243L326.103 223.31Z" stroke="white" stroke-opacity="0.1" stroke-width="2.3388" stroke-miterlimit="10"/>
<path d="M456.671 170.187L451.604 165.077L451.658 159.53L437.897 145.951L418.664 145.844L418.77 165.077L423.88 170.187L418.77 175.286L418.664 194.519L437.897 194.412L451.626 180.673L451.604 175.297L456.671 170.187Z" stroke="white" stroke-opacity="0.1" stroke-width="2.3388" stroke-miterlimit="10"/>
<path d="M427.528 170.187L432.595 175.297L432.531 180.833L446.303 194.412L465.536 194.519L465.429 175.286L460.319 170.176L465.429 165.077L465.536 145.844L446.303 145.951L432.563 159.69L432.595 165.077L427.528 170.187Z" stroke="white" stroke-opacity="0.1" stroke-width="2.3388" stroke-miterlimit="10"/>
<path d="M403.548 194.167L398.438 199.234L392.891 199.17L379.312 212.941L379.216 232.164L398.438 232.068L403.548 226.958L408.658 232.068L427.88 232.164L427.773 212.941L414.045 199.202L408.658 199.234L403.548 194.167Z" stroke="white" stroke-opacity="0.1" stroke-width="2.3388" stroke-miterlimit="10"/>
<path d="M403.548 223.31L408.658 218.243L414.205 218.296L427.773 204.525L427.88 185.302L408.658 185.409L403.548 190.508L398.438 185.409L379.216 185.302L379.312 204.525L393.051 218.264L398.438 218.243L403.548 223.31Z" stroke="white" stroke-opacity="0.1" stroke-width="2.3388" stroke-miterlimit="10"/>
<path d="M534.105 170.187L529.038 165.077L529.102 159.53L515.331 145.951L496.108 145.844L496.215 165.077L501.314 170.187L496.215 175.286L496.108 194.519L515.331 194.412L529.07 180.673L529.038 175.297L534.105 170.187Z" stroke="white" stroke-opacity="0.1" stroke-width="2.3388" stroke-miterlimit="10"/>
<path d="M504.973 170.187L510.04 175.297L509.976 180.833L523.747 194.412L542.97 194.519L542.863 175.286L537.764 170.176L542.863 165.077L542.97 145.844L523.747 145.951L510.008 159.69L510.04 165.077L504.973 170.187Z" stroke="white" stroke-opacity="0.1" stroke-width="2.3388" stroke-miterlimit="10"/>
<path d="M480.982 194.167L475.872 199.234L470.336 199.17L456.757 212.941L456.65 232.164L475.883 232.068L480.993 226.958L486.092 232.068L505.325 232.164L505.218 212.941L491.479 199.202L486.102 199.234L480.982 194.167Z" stroke="white" stroke-opacity="0.1" stroke-width="2.3388" stroke-miterlimit="10"/>
<path d="M480.982 223.31L486.102 218.243L491.639 218.296L505.218 204.525L505.325 185.302L486.092 185.409L480.982 190.508L475.883 185.409L456.65 185.302L456.757 204.525L470.496 218.264L475.872 218.243L480.982 223.31Z" stroke="white" stroke-opacity="0.1" stroke-width="2.3388" stroke-miterlimit="10"/>
<path d="M611.55 170.187L606.483 165.077L606.547 159.53L592.776 145.951L573.553 145.844L573.649 165.077L578.759 170.187L573.649 175.286L573.553 194.519L592.776 194.412L606.515 180.673L606.483 175.297L611.55 170.187Z" stroke="white" stroke-opacity="0.1" stroke-width="2.3388" stroke-miterlimit="10"/>
<path d="M582.407 170.187L587.474 175.297L587.421 180.833L601.192 194.412L620.415 194.519L620.308 175.286L615.209 170.176L620.308 165.077L620.415 145.844L601.192 145.951L587.453 159.69L587.474 165.077L582.407 170.187Z" stroke="white" stroke-opacity="0.1" stroke-width="2.3388" stroke-miterlimit="10"/>
<path d="M558.427 194.167L553.317 199.234L547.77 199.17L534.201 212.941L534.095 232.164L553.317 232.068L558.427 226.958L563.537 232.068L582.759 232.164L582.663 212.941L568.924 199.202L563.537 199.234L558.427 194.167Z" stroke="white" stroke-opacity="0.1" stroke-width="2.3388" stroke-miterlimit="10"/>
<path d="M558.427 223.31L563.537 218.243L569.084 218.296L582.663 204.525L582.759 185.302L563.537 185.409L558.427 190.508L553.317 185.409L534.095 185.302L534.201 204.525L547.93 218.264L553.317 218.243L558.427 223.31Z" stroke="white" stroke-opacity="0.1" stroke-width="2.3388" stroke-miterlimit="10"/>
<path d="M688.995 170.187L683.928 165.077L683.981 159.53L670.22 145.951L650.987 145.844L651.094 165.077L656.203 170.187L651.094 175.286L650.987 194.519L670.22 194.412L683.949 180.673L683.928 175.297L688.995 170.187Z" stroke="white" stroke-opacity="0.1" stroke-width="2.3388" stroke-miterlimit="10"/>
<path d="M659.852 170.187L664.919 175.297L664.855 180.833L678.626 194.412L697.859 194.519L697.753 175.286L692.643 170.176L697.753 165.077L697.859 145.844L678.626 145.951L664.887 159.69L664.919 165.077L659.852 170.187Z" stroke="white" stroke-opacity="0.1" stroke-width="2.3388" stroke-miterlimit="10"/>
<path d="M635.871 194.167L630.762 199.234L625.215 199.17L611.635 212.941L611.539 232.164L630.762 232.068L635.871 226.958L640.981 232.068L660.204 232.164L660.097 212.941L646.368 199.202L640.981 199.234L635.871 194.167Z" stroke="white" stroke-opacity="0.1" stroke-width="2.3388" stroke-miterlimit="10"/>
<path d="M635.871 223.31L640.981 218.243L646.528 218.296L660.097 204.525L660.204 185.302L640.981 185.409L635.871 190.508L630.762 185.409L611.539 185.302L611.635 204.525L625.375 218.264L630.762 218.243L635.871 223.31Z" stroke="white" stroke-opacity="0.1" stroke-width="2.3388" stroke-miterlimit="10"/>
<path d="M301.782 247.738L296.715 242.629L296.779 237.092L283.008 223.513L263.785 223.406L263.892 242.639L268.991 247.749L263.892 252.848L263.785 272.081L283.008 271.974L296.747 258.235L296.715 252.858L301.782 247.738Z" stroke="white" stroke-opacity="0.1" stroke-width="2.3388" stroke-miterlimit="10"/>
<path d="M272.649 247.738L277.716 252.858L277.652 258.395L291.424 271.974L310.646 272.081L310.539 252.848L305.44 247.738L310.539 242.639L310.646 223.406L291.424 223.513L277.684 237.252L277.716 242.629L272.649 247.738Z" stroke="white" stroke-opacity="0.1" stroke-width="2.3388" stroke-miterlimit="10"/>
<path d="M248.659 271.729L243.549 276.796L238.013 276.732L224.433 290.503L224.326 309.726L243.56 309.619L248.669 304.52L253.768 309.619L273.001 309.726L272.895 290.503L259.155 276.764L253.768 276.796L248.659 271.729Z" stroke="white" stroke-opacity="0.1" stroke-width="2.3388" stroke-miterlimit="10"/>
<path d="M248.659 300.862L253.768 295.795L259.315 295.859L272.895 282.087L273.001 262.865L253.768 262.971L248.659 268.07L243.56 262.971L224.326 262.865L224.433 282.087L238.173 295.827L243.549 295.795L248.659 300.862Z" stroke="white" stroke-opacity="0.1" stroke-width="2.3388" stroke-miterlimit="10"/>
<path d="M379.227 247.738L374.16 242.629L374.224 237.092L360.452 223.513L341.23 223.406L341.326 242.639L346.436 247.749L341.326 252.848L341.23 272.081L360.452 271.974L374.192 258.235L374.16 252.858L379.227 247.738Z" stroke="white" stroke-opacity="0.1" stroke-width="2.3388" stroke-miterlimit="10"/>
<path d="M350.083 247.738L355.15 252.858L355.097 258.395L368.858 271.974L388.091 272.081L387.984 252.848L382.885 247.738L387.984 242.639L388.091 223.406L368.858 223.513L355.129 237.252L355.15 242.629L350.083 247.738Z" stroke="white" stroke-opacity="0.1" stroke-width="2.3388" stroke-miterlimit="10"/>
<path d="M326.103 271.729L320.994 276.796L315.447 276.732L301.878 290.503L301.771 309.726L320.994 309.619L326.103 304.52L331.213 309.619L350.435 309.726L350.34 290.503L336.6 276.764L331.213 276.796L326.103 271.729Z" stroke="white" stroke-opacity="0.1" stroke-width="2.3388" stroke-miterlimit="10"/>
<path d="M326.103 300.862L331.213 295.795L336.76 295.859L350.34 282.087L350.435 262.865L331.213 262.971L326.103 268.07L320.994 262.971L301.771 262.865L301.878 282.087L315.607 295.827L320.994 295.795L326.103 300.862Z" stroke="white" stroke-opacity="0.1" stroke-width="2.3388" stroke-miterlimit="10"/>
<path d="M456.671 247.738L451.604 242.629L451.658 237.092L437.897 223.513L418.664 223.406L418.77 242.639L423.88 247.749L418.77 252.848L418.664 272.081L437.897 271.974L451.626 258.235L451.604 252.858L456.671 247.738Z" stroke="white" stroke-opacity="0.1" stroke-width="2.3388" stroke-miterlimit="10"/>
<path d="M427.528 247.738L432.595 252.858L432.531 258.395L446.303 271.974L465.536 272.081L465.429 252.848L460.319 247.738L465.429 242.639L465.536 223.406L446.303 223.513L432.563 237.252L432.595 242.629L427.528 247.738Z" stroke="white" stroke-opacity="0.1" stroke-width="2.3388" stroke-miterlimit="10"/>
<path d="M403.548 271.729L398.438 276.796L392.891 276.732L379.312 290.503L379.216 309.726L398.438 309.619L403.548 304.52L408.658 309.619L427.88 309.726L427.773 290.503L414.045 276.764L408.658 276.796L403.548 271.729Z" stroke="white" stroke-opacity="0.1" stroke-width="2.3388" stroke-miterlimit="10"/>
<path d="M403.548 300.862L408.658 295.795L414.205 295.859L427.773 282.087L427.88 262.865L408.658 262.971L403.548 268.07L398.438 262.971L379.216 262.865L379.312 282.087L393.051 295.827L398.438 295.795L403.548 300.862Z" stroke="white" stroke-opacity="0.1" stroke-width="2.3388" stroke-miterlimit="10"/>
<path d="M534.105 247.738L529.038 242.628L529.102 237.092L515.331 223.513L496.108 223.406L496.215 242.639L501.314 247.749L496.215 252.848L496.108 272.081L515.331 271.974L529.07 258.235L529.038 252.858L534.105 247.738Z" stroke="white" stroke-opacity="0.1" stroke-width="2.3388" stroke-miterlimit="10"/>
<path d="M504.973 247.738L510.04 252.858L509.976 258.395L523.747 271.974L542.97 272.081L542.863 252.848L537.764 247.738L542.863 242.639L542.97 223.406L523.747 223.513L510.008 237.252L510.04 242.628L504.973 247.738Z" stroke="white" stroke-opacity="0.1" stroke-width="2.3388" stroke-miterlimit="10"/>
<path d="M480.982 271.729L475.872 276.796L470.336 276.732L456.757 290.503L456.65 309.726L475.883 309.619L480.993 304.52L486.092 309.619L505.325 309.726L505.218 290.503L491.479 276.764L486.102 276.796L480.982 271.729Z" stroke="white" stroke-opacity="0.1" stroke-width="2.3388" stroke-miterlimit="10"/>
<path d="M480.982 300.862L486.102 295.795L491.639 295.859L505.218 282.087L505.325 262.865L486.092 262.971L480.982 268.07L475.883 262.971L456.65 262.865L456.757 282.087L470.496 295.827L475.872 295.795L480.982 300.862Z" stroke="white" stroke-opacity="0.1" stroke-width="2.3388" stroke-miterlimit="10"/>
<path d="M611.55 247.738L606.483 242.629L606.547 237.092L592.776 223.513L573.553 223.406L573.649 242.639L578.759 247.749L573.649 252.848L573.553 272.081L592.776 271.974L606.515 258.235L606.483 252.858L611.55 247.738Z" stroke="white" stroke-opacity="0.1" stroke-width="2.3388" stroke-miterlimit="10"/>
<path d="M582.407 247.738L587.474 252.858L587.421 258.395L601.192 271.974L620.415 272.081L620.308 252.848L615.209 247.738L620.308 242.639L620.415 223.406L601.192 223.513L587.453 237.252L587.474 242.629L582.407 247.738Z" stroke="white" stroke-opacity="0.1" stroke-width="2.3388" stroke-miterlimit="10"/>
<path d="M558.427 271.729L553.317 276.796L547.77 276.732L534.201 290.503L534.095 309.726L553.317 309.619L558.427 304.52L563.537 309.619L582.759 309.726L582.663 290.503L568.924 276.764L563.537 276.796L558.427 271.729Z" stroke="white" stroke-opacity="0.1" stroke-width="2.3388" stroke-miterlimit="10"/>
<path d="M558.427 300.862L563.537 295.795L569.084 295.859L582.663 282.087L582.759 262.865L563.537 262.971L558.427 268.07L553.317 262.971L534.095 262.865L534.201 282.087L547.93 295.827L553.317 295.795L558.427 300.862Z" stroke="white" stroke-opacity="0.1" stroke-width="2.3388" stroke-miterlimit="10"/>
<path d="M688.995 247.738L683.928 242.629L683.981 237.092L670.22 223.513L650.987 223.406L651.094 242.639L656.203 247.749L651.094 252.848L650.987 272.081L670.22 271.974L683.949 258.235L683.928 252.858L688.995 247.738Z" stroke="white" stroke-opacity="0.1" stroke-width="2.3388" stroke-miterlimit="10"/>
<path d="M659.852 247.738L664.919 252.858L664.855 258.395L678.626 271.974L697.859 272.081L697.753 252.848L692.643 247.738L697.753 242.639L697.859 223.406L678.626 223.513L664.887 237.252L664.919 242.629L659.852 247.738Z" stroke="white" stroke-opacity="0.1" stroke-width="2.3388" stroke-miterlimit="10"/>
<path d="M635.871 271.729L630.762 276.796L625.215 276.732L611.635 290.503L611.539 309.726L630.762 309.619L635.871 304.52L640.981 309.619L660.204 309.726L660.097 290.503L646.368 276.764L640.981 276.796L635.871 271.729Z" stroke="white" stroke-opacity="0.1" stroke-width="2.3388" stroke-miterlimit="10"/>
<path d="M635.871 300.862L640.981 295.795L646.528 295.859L660.097 282.087L660.204 262.865L640.981 262.971L635.871 268.07L630.762 262.971L611.539 262.865L611.635 282.087L625.375 295.827L630.762 295.795L635.871 300.862Z" stroke="white" stroke-opacity="0.1" stroke-width="2.3388" stroke-miterlimit="10"/>
<path d="M765.597 14.3587L760.53 9.24909L760.594 3.71275L746.822 -9.86671L727.6 -9.97339L727.696 9.24909L732.806 14.3694L727.696 19.4684L727.6 38.7015L746.822 38.5949L760.562 24.8554L760.53 19.4684L765.597 14.3587Z" stroke="white" stroke-opacity="0.1" stroke-width="2.3388" stroke-miterlimit="10"/>
<path d="M736.454 14.3587L741.521 19.4684L741.467 25.0154L755.228 38.5949L774.461 38.7015L774.355 19.4684L769.256 14.3587L774.355 9.24909L774.461 -9.97339L755.228 -9.86671L741.499 3.87279L741.521 9.24909L736.454 14.3587Z" stroke="white" stroke-opacity="0.1" stroke-width="2.3388" stroke-miterlimit="10"/>
<path d="M712.473 38.3493L707.364 43.4163L701.817 43.3523L688.248 57.1238L688.141 76.3463L707.364 76.2396L712.473 71.1406L717.583 76.2396L736.806 76.3463L736.71 57.1238L722.97 43.3843L717.583 43.4163L712.473 38.3493Z" stroke="white" stroke-opacity="0.1" stroke-width="2.3388" stroke-miterlimit="10"/>
<path d="M712.473 67.4817L717.583 62.4147L723.13 62.4787L736.71 48.7072L736.806 29.4847L717.583 29.5807L712.473 34.6904L707.364 29.5807L688.141 29.4847L688.248 48.7072L701.977 62.4467L707.364 62.4147L712.473 67.4817Z" stroke="white" stroke-opacity="0.1" stroke-width="2.3388" stroke-miterlimit="10"/>
<path d="M843.041 14.3587L837.974 9.24909L838.028 3.71275L824.267 -9.86671L805.034 -9.97339L805.14 9.24909L810.25 14.3694L805.14 19.4684L805.034 38.7015L824.267 38.5949L837.996 24.8554L837.974 19.4684L843.041 14.3587Z" stroke="white" stroke-opacity="0.1" stroke-width="2.3388" stroke-miterlimit="10"/>
<path d="M813.898 14.3587L818.965 19.4684L818.901 25.0154L832.673 38.5949L851.895 38.7015L851.799 19.4684L846.689 14.3587L851.799 9.24909L851.895 -9.97339L832.673 -9.86671L818.933 3.87279L818.965 9.24909L813.898 14.3587Z" stroke="white" stroke-opacity="0.1" stroke-width="2.3388" stroke-miterlimit="10"/>
<path d="M789.918 38.3493L784.808 43.4163L779.261 43.3523L765.682 57.1238L765.586 76.3463L784.808 76.2396L789.918 71.1406L795.028 76.2396L814.25 76.3463L814.144 57.1238L800.415 43.3843L795.028 43.4163L789.918 38.3493Z" stroke="white" stroke-opacity="0.1" stroke-width="2.3388" stroke-miterlimit="10"/>
<path d="M789.918 67.4817L795.028 62.4147L800.575 62.4787L814.144 48.7072L814.25 29.4847L795.028 29.5807L789.907 34.6904L784.808 29.5807L765.586 29.4847L765.682 48.7072L779.421 62.4467L784.808 62.4147L789.918 67.4817Z" stroke="white" stroke-opacity="0.1" stroke-width="2.3388" stroke-miterlimit="10"/>
<path d="M920.475 14.3587L915.408 9.24909L915.472 3.71275L901.701 -9.86671L882.478 -9.97339L882.585 9.24909L887.684 14.3694L882.585 19.4684L882.478 38.7015L901.701 38.5949L915.44 24.8554L915.408 19.4684L920.475 14.3587Z" stroke="white" stroke-opacity="0.1" stroke-width="2.3388" stroke-miterlimit="10"/>
<path d="M891.343 14.3587L896.41 19.4684L896.346 25.0154L910.117 38.5949L929.34 38.7015L929.233 19.4684L924.134 14.3587L929.233 9.24909L929.34 -9.97339L910.117 -9.86671L896.378 3.87279L896.41 9.24909L891.343 14.3587Z" stroke="white" stroke-opacity="0.1" stroke-width="2.3388" stroke-miterlimit="10"/>
<path d="M867.352 38.3493L862.242 43.4163L856.706 43.3523L843.127 57.1238L843.02 76.3463L862.253 76.2396L867.363 71.1406L872.462 76.2396L891.695 76.3463L891.588 57.1238L877.849 43.3843L872.473 43.4163L867.352 38.3493Z" stroke="white" stroke-opacity="0.1" stroke-width="2.3388" stroke-miterlimit="10"/>
<path d="M867.352 67.4817L872.473 62.4147L878.009 62.4787L891.588 48.7072L891.695 29.4847L872.462 29.5807L867.352 34.6904L862.253 29.5807L843.02 29.4847L843.127 48.7072L856.866 62.4467L862.242 62.4147L867.352 67.4817Z" stroke="white" stroke-opacity="0.1" stroke-width="2.3388" stroke-miterlimit="10"/>
<path d="M997.92 14.3587L992.853 9.24909L992.917 3.71275L979.146 -9.86671L959.923 -9.97339L960.019 9.24909L965.129 14.3694L960.019 19.4684L959.923 38.7015L979.146 38.5949L992.885 24.8554L992.853 19.4684L997.92 14.3587Z" stroke="white" stroke-opacity="0.1" stroke-width="2.3388" stroke-miterlimit="10"/>
<path d="M968.777 14.3587L973.844 19.4684L973.791 25.0154L987.551 38.5949L1006.78 38.7015L1006.68 19.4684L1001.58 14.3587L1006.68 9.24909L1006.78 -9.97339L987.551 -9.86671L973.822 3.87279L973.844 9.24909L968.777 14.3587Z" stroke="white" stroke-opacity="0.1" stroke-width="2.3388" stroke-miterlimit="10"/>
<path d="M944.797 38.3493L939.687 43.4163L934.14 43.3523L920.571 57.1238L920.465 76.3463L939.687 76.2396L944.797 71.1406L949.906 76.2396L969.129 76.3463L969.033 57.1238L955.293 43.3843L949.906 43.4163L944.797 38.3493Z" stroke="white" stroke-opacity="0.1" stroke-width="2.3388" stroke-miterlimit="10"/>
<path d="M944.797 67.4817L949.906 62.4147L955.453 62.4787L969.033 48.7072L969.129 29.4847L949.906 29.5807L944.797 34.6904L939.687 29.5807L920.465 29.4847L920.571 48.7072L934.3 62.4467L939.687 62.4147L944.797 67.4817Z" stroke="white" stroke-opacity="0.1" stroke-width="2.3388" stroke-miterlimit="10"/>
<path d="M1075.36 14.3587L1070.3 9.24909L1070.35 3.71275L1056.59 -9.86671L1037.36 -9.97339L1037.46 9.24909L1042.57 14.3694L1037.46 19.4684L1037.36 38.7015L1056.59 38.5949L1070.32 24.8554L1070.3 19.4684L1075.36 14.3587Z" stroke="white" stroke-opacity="0.1" stroke-width="2.3388" stroke-miterlimit="10"/>
<path d="M1046.22 14.3587L1051.29 19.4684L1051.22 25.0154L1065 38.5949L1084.23 38.7015L1084.12 19.4684L1079.01 14.3587L1084.12 9.24909L1084.23 -9.97339L1065 -9.86671L1051.26 3.87279L1051.29 9.24909L1046.22 14.3587Z" stroke="white" stroke-opacity="0.1" stroke-width="2.3388" stroke-miterlimit="10"/>
<path d="M1022.24 38.3493L1017.13 43.4163L1011.58 43.3523L998.005 57.1238L997.909 76.3463L1017.13 76.2396L1022.24 71.1406L1027.35 76.2396L1046.57 76.3463L1046.47 57.1238L1032.74 43.3843L1027.35 43.4163L1022.24 38.3493Z" stroke="white" stroke-opacity="0.1" stroke-width="2.3388" stroke-miterlimit="10"/>
<path d="M1022.24 67.4817L1027.35 62.4147L1032.9 62.4787L1046.47 48.7072L1046.57 29.4847L1027.35 29.5807L1022.24 34.6904L1017.13 29.5807L997.909 29.4847L998.005 48.7072L1011.74 62.4467L1017.13 62.4147L1022.24 67.4817Z" stroke="white" stroke-opacity="0.1" stroke-width="2.3388" stroke-miterlimit="10"/>
<path d="M1152.8 14.3587L1147.73 9.24909L1147.8 3.71275L1134.02 -9.86671L1114.8 -9.97339L1114.91 9.24909L1120.01 14.3694L1114.91 19.4684L1114.8 38.7015L1134.02 38.5949L1147.76 24.8554L1147.73 19.4684L1152.8 14.3587Z" stroke="white" stroke-opacity="0.1" stroke-width="2.3388" stroke-miterlimit="10"/>
<path d="M1123.67 14.3587L1128.73 19.4684L1128.67 25.0154L1142.44 38.5949L1161.66 38.7015L1161.57 19.4684L1156.46 14.3587L1161.57 9.24909L1161.66 -9.97339L1142.44 -9.86671L1128.7 3.87279L1128.73 9.24909L1123.67 14.3587Z" stroke="white" stroke-opacity="0.1" stroke-width="2.3388" stroke-miterlimit="10"/>
<path d="M1099.69 38.3493L1094.57 43.4163L1089.03 43.3523L1075.45 57.1238L1075.34 76.3463L1094.58 76.2396L1099.69 71.1406L1104.78 76.2396L1124.02 76.3463L1123.91 57.1238L1110.17 43.3843L1104.8 43.4163L1099.69 38.3493Z" stroke="white" stroke-opacity="0.1" stroke-width="2.3388" stroke-miterlimit="10"/>
<path d="M1099.69 67.4817L1104.8 62.4147L1110.33 62.4787L1123.91 48.7072L1124.02 29.4847L1104.78 29.5807L1099.68 34.6904L1094.58 29.5807L1075.34 29.4847L1075.45 48.7072L1089.19 62.4467L1094.57 62.4147L1099.69 67.4817Z" stroke="white" stroke-opacity="0.1" stroke-width="2.3388" stroke-miterlimit="10"/>
<path d="M765.597 91.9206L760.53 86.811L760.594 81.264L746.822 67.6952L727.6 67.5885L727.696 86.811L732.806 91.9206L727.696 97.0303L727.6 116.253L746.822 116.157L760.562 102.417L760.53 97.0303L765.597 91.9206Z" stroke="white" stroke-opacity="0.1" stroke-width="2.3388" stroke-miterlimit="10"/>
<path d="M736.454 91.9206L741.521 97.0303L741.467 102.577L755.228 116.157L774.461 116.253L774.355 97.0303L769.256 91.9206L774.355 86.811L774.461 67.5885L755.228 67.6952L741.499 81.424L741.521 86.811L736.454 91.9206Z" stroke="white" stroke-opacity="0.1" stroke-width="2.3388" stroke-miterlimit="10"/>
<path d="M712.473 115.901L707.364 120.968L701.817 120.914L688.248 134.675L688.141 153.908L707.364 153.802L712.473 148.703L717.583 153.802L736.806 153.908L736.71 134.675L722.97 120.946L717.583 120.968L712.473 115.901Z" stroke="white" stroke-opacity="0.1" stroke-width="2.3388" stroke-miterlimit="10"/>
<path d="M712.473 145.044L717.583 139.977L723.13 140.041L736.71 126.27L736.806 107.047L717.583 107.143L712.473 112.253L707.364 107.143L688.141 107.047L688.248 126.27L701.977 140.009L707.364 139.977L712.473 145.044Z" stroke="white" stroke-opacity="0.1" stroke-width="2.3388" stroke-miterlimit="10"/>
<path d="M843.041 91.9206L837.974 86.811L838.028 81.264L824.267 67.6952L805.034 67.5885L805.14 86.811L810.25 91.9206L805.14 97.0303L805.034 116.253L824.267 116.157L837.996 102.417L837.974 97.0303L843.041 91.9206Z" stroke="white" stroke-opacity="0.1" stroke-width="2.3388" stroke-miterlimit="10"/>
<path d="M813.898 91.9206L818.965 97.0303L818.901 102.577L832.673 116.157L851.895 116.253L851.799 97.0303L846.689 91.9206L851.799 86.811L851.895 67.5885L832.673 67.6952L818.933 81.424L818.965 86.811L813.898 91.9206Z" stroke="white" stroke-opacity="0.1" stroke-width="2.3388" stroke-miterlimit="10"/>
<path d="M789.918 115.901L784.808 120.968L779.261 120.914L765.682 134.675L765.586 153.908L784.808 153.802L789.918 148.703L795.028 153.802L814.25 153.908L814.144 134.675L800.415 120.946L795.028 120.968L789.918 115.901Z" stroke="white" stroke-opacity="0.1" stroke-width="2.3388" stroke-miterlimit="10"/>
<path d="M789.918 145.044L795.028 139.977L800.575 140.041L814.144 126.27L814.25 107.047L795.028 107.143L789.907 112.253L784.808 107.143L765.586 107.047L765.682 126.27L779.421 140.009L784.808 139.977L789.918 145.044Z" stroke="white" stroke-opacity="0.1" stroke-width="2.3388" stroke-miterlimit="10"/>
<path d="M920.475 91.9206L915.408 86.811L915.472 81.264L901.701 67.6952L882.478 67.5885L882.585 86.811L887.684 91.9206L882.585 97.0303L882.478 116.253L901.701 116.157L915.44 102.417L915.408 97.0303L920.475 91.9206Z" stroke="white" stroke-opacity="0.1" stroke-width="2.3388" stroke-miterlimit="10"/>
<path d="M891.343 91.9206L896.41 97.0303L896.346 102.577L910.117 116.157L929.34 116.253L929.233 97.0303L924.134 91.9206L929.233 86.811L929.34 67.5885L910.117 67.6952L896.378 81.424L896.41 86.811L891.343 91.9206Z" stroke="white" stroke-opacity="0.1" stroke-width="2.3388" stroke-miterlimit="10"/>
<path d="M867.352 115.901L862.242 120.968L856.706 120.914L843.127 134.675L843.02 153.908L862.253 153.802L867.363 148.703L872.462 153.802L891.695 153.908L891.588 134.675L877.849 120.946L872.473 120.968L867.352 115.901Z" stroke="white" stroke-opacity="0.1" stroke-width="2.3388" stroke-miterlimit="10"/>
<path d="M867.352 145.044L872.473 139.977L878.009 140.041L891.588 126.27L891.695 107.047L872.462 107.143L867.352 112.253L862.253 107.143L843.02 107.047L843.127 126.27L856.866 140.009L862.242 139.977L867.352 145.044Z" stroke="white" stroke-opacity="0.1" stroke-width="2.3388" stroke-miterlimit="10"/>
<path d="M997.92 91.9206L992.853 86.811L992.917 81.264L979.146 67.6952L959.923 67.5885L960.019 86.811L965.129 91.9206L960.019 97.0303L959.923 116.253L979.146 116.157L992.885 102.417L992.853 97.0303L997.92 91.9206Z" stroke="white" stroke-opacity="0.1" stroke-width="2.3388" stroke-miterlimit="10"/>
<path d="M968.777 91.9206L973.844 97.0303L973.791 102.577L987.551 116.157L1006.78 116.253L1006.68 97.0303L1001.58 91.9206L1006.68 86.811L1006.78 67.5885L987.551 67.6952L973.822 81.424L973.844 86.811L968.777 91.9206Z" stroke="white" stroke-opacity="0.1" stroke-width="2.3388" stroke-miterlimit="10"/>
<path d="M944.797 115.901L939.687 120.968L934.14 120.914L920.571 134.675L920.465 153.908L939.687 153.802L944.797 148.703L949.906 153.802L969.129 153.908L969.033 134.675L955.293 120.946L949.906 120.968L944.797 115.901Z" stroke="white" stroke-opacity="0.1" stroke-width="2.3388" stroke-miterlimit="10"/>
<path d="M944.797 145.044L949.906 139.977L955.453 140.041L969.033 126.27L969.129 107.047L949.906 107.143L944.797 112.253L939.687 107.143L920.465 107.047L920.571 126.27L934.3 140.009L939.687 139.977L944.797 145.044Z" stroke="white" stroke-opacity="0.1" stroke-width="2.3388" stroke-miterlimit="10"/>
<path d="M1075.36 91.9206L1070.3 86.811L1070.35 81.264L1056.59 67.6952L1037.36 67.5885L1037.46 86.811L1042.57 91.9206L1037.46 97.0303L1037.36 116.253L1056.59 116.157L1070.32 102.417L1070.3 97.0303L1075.36 91.9206Z" stroke="white" stroke-opacity="0.1" stroke-width="2.3388" stroke-miterlimit="10"/>
<path d="M1046.22 91.9206L1051.29 97.0303L1051.22 102.577L1065 116.157L1084.23 116.253L1084.12 97.0303L1079.01 91.9206L1084.12 86.811L1084.23 67.5885L1065 67.6952L1051.26 81.424L1051.29 86.811L1046.22 91.9206Z" stroke="white" stroke-opacity="0.1" stroke-width="2.3388" stroke-miterlimit="10"/>
<path d="M1022.24 115.901L1017.13 120.968L1011.58 120.914L998.005 134.675L997.909 153.908L1017.13 153.802L1022.24 148.703L1027.35 153.802L1046.57 153.908L1046.47 134.675L1032.74 120.946L1027.35 120.968L1022.24 115.901Z" stroke="white" stroke-opacity="0.1" stroke-width="2.3388" stroke-miterlimit="10"/>
<path d="M1022.24 145.044L1027.35 139.977L1032.9 140.041L1046.47 126.27L1046.57 107.047L1027.35 107.143L1022.24 112.253L1017.13 107.143L997.909 107.047L998.005 126.27L1011.74 140.009L1017.13 139.977L1022.24 145.044Z" stroke="white" stroke-opacity="0.1" stroke-width="2.3388" stroke-miterlimit="10"/>
<path d="M1152.8 91.9206L1147.73 86.811L1147.8 81.264L1134.02 67.6952L1114.8 67.5885L1114.91 86.811L1120.01 91.9206L1114.91 97.0303L1114.8 116.253L1134.02 116.157L1147.76 102.417L1147.73 97.0303L1152.8 91.9206Z" stroke="white" stroke-opacity="0.1" stroke-width="2.3388" stroke-miterlimit="10"/>
<path d="M1123.67 91.9206L1128.73 97.0303L1128.67 102.577L1142.44 116.157L1161.66 116.253L1161.57 97.0303L1156.46 91.9206L1161.57 86.811L1161.66 67.5885L1142.44 67.6952L1128.7 81.424L1128.73 86.811L1123.67 91.9206Z" stroke="white" stroke-opacity="0.1" stroke-width="2.3388" stroke-miterlimit="10"/>
<path d="M1099.69 115.901L1094.57 120.968L1089.03 120.914L1075.45 134.675L1075.34 153.908L1094.58 153.802L1099.69 148.703L1104.78 153.802L1124.02 153.908L1123.91 134.675L1110.17 120.946L1104.8 120.968L1099.69 115.901Z" stroke="white" stroke-opacity="0.1" stroke-width="2.3388" stroke-miterlimit="10"/>
<path d="M1099.69 145.044L1104.8 139.977L1110.33 140.041L1123.91 126.27L1124.02 107.047L1104.78 107.143L1099.68 112.253L1094.58 107.143L1075.34 107.047L1075.45 126.27L1089.19 140.009L1094.57 139.977L1099.69 145.044Z" stroke="white" stroke-opacity="0.1" stroke-width="2.3388" stroke-miterlimit="10"/>
<path d="M765.597 170.187L760.53 165.077L760.594 159.53L746.822 145.951L727.6 145.844L727.696 165.077L732.806 170.187L727.696 175.286L727.6 194.519L746.822 194.412L760.562 180.673L760.53 175.297L765.597 170.187Z" stroke="white" stroke-opacity="0.1" stroke-width="2.3388" stroke-miterlimit="10"/>
<path d="M736.454 170.187L741.521 175.297L741.467 180.833L755.228 194.412L774.461 194.519L774.355 175.286L769.256 170.176L774.355 165.077L774.461 145.844L755.228 145.951L741.499 159.69L741.521 165.077L736.454 170.187Z" stroke="white" stroke-opacity="0.1" stroke-width="2.3388" stroke-miterlimit="10"/>
<path d="M712.473 194.167L707.364 199.234L701.817 199.17L688.248 212.941L688.141 232.164L707.364 232.068L712.473 226.958L717.583 232.068L736.806 232.164L736.71 212.941L722.97 199.202L717.583 199.234L712.473 194.167Z" stroke="white" stroke-opacity="0.1" stroke-width="2.3388" stroke-miterlimit="10"/>
<path d="M712.473 223.31L717.583 218.243L723.13 218.296L736.71 204.525L736.806 185.302L717.583 185.409L712.473 190.508L707.364 185.409L688.141 185.302L688.248 204.525L701.977 218.264L707.364 218.243L712.473 223.31Z" stroke="white" stroke-opacity="0.1" stroke-width="2.3388" stroke-miterlimit="10"/>
<path d="M843.041 170.187L837.974 165.077L838.028 159.53L824.267 145.951L805.034 145.844L805.14 165.077L810.25 170.187L805.14 175.286L805.034 194.519L824.267 194.412L837.996 180.673L837.974 175.297L843.041 170.187Z" stroke="white" stroke-opacity="0.1" stroke-width="2.3388" stroke-miterlimit="10"/>
<path d="M813.898 170.187L818.965 175.297L818.901 180.833L832.673 194.412L851.895 194.519L851.799 175.286L846.689 170.176L851.799 165.077L851.895 145.844L832.673 145.951L818.933 159.69L818.965 165.077L813.898 170.187Z" stroke="white" stroke-opacity="0.1" stroke-width="2.3388" stroke-miterlimit="10"/>
<path d="M789.918 194.167L784.808 199.234L779.261 199.17L765.682 212.941L765.586 232.164L784.808 232.068L789.918 226.958L795.028 232.068L814.25 232.164L814.144 212.941L800.415 199.202L795.028 199.234L789.918 194.167Z" stroke="white" stroke-opacity="0.1" stroke-width="2.3388" stroke-miterlimit="10"/>
<path d="M789.918 223.31L795.028 218.243L800.575 218.296L814.144 204.525L814.25 185.302L795.028 185.409L789.907 190.508L784.808 185.409L765.586 185.302L765.682 204.525L779.421 218.264L784.808 218.243L789.918 223.31Z" stroke="white" stroke-opacity="0.1" stroke-width="2.3388" stroke-miterlimit="10"/>
<path d="M920.475 170.187L915.408 165.077L915.472 159.53L901.701 145.951L882.478 145.844L882.585 165.077L887.684 170.187L882.585 175.286L882.478 194.519L901.701 194.412L915.44 180.673L915.408 175.297L920.475 170.187Z" stroke="white" stroke-opacity="0.1" stroke-width="2.3388" stroke-miterlimit="10"/>
<path d="M891.343 170.187L896.41 175.297L896.346 180.833L910.117 194.412L929.34 194.519L929.233 175.286L924.134 170.176L929.233 165.077L929.34 145.844L910.117 145.951L896.378 159.69L896.41 165.077L891.343 170.187Z" stroke="white" stroke-opacity="0.1" stroke-width="2.3388" stroke-miterlimit="10"/>
<path d="M867.352 194.167L862.242 199.234L856.706 199.17L843.127 212.941L843.02 232.164L862.253 232.068L867.363 226.958L872.462 232.068L891.695 232.164L891.588 212.941L877.849 199.202L872.473 199.234L867.352 194.167Z" stroke="white" stroke-opacity="0.1" stroke-width="2.3388" stroke-miterlimit="10"/>
<path d="M867.352 223.31L872.473 218.243L878.009 218.296L891.588 204.525L891.695 185.302L872.462 185.409L867.352 190.508L862.253 185.409L843.02 185.302L843.127 204.525L856.866 218.264L862.242 218.243L867.352 223.31Z" stroke="white" stroke-opacity="0.1" stroke-width="2.3388" stroke-miterlimit="10"/>
<path d="M997.92 170.187L992.853 165.077L992.917 159.53L979.146 145.951L959.923 145.844L960.019 165.077L965.129 170.187L960.019 175.286L959.923 194.519L979.146 194.412L992.885 180.673L992.853 175.297L997.92 170.187Z" stroke="white" stroke-opacity="0.1" stroke-width="2.3388" stroke-miterlimit="10"/>
<path d="M968.777 170.187L973.844 175.297L973.791 180.833L987.551 194.412L1006.78 194.519L1006.68 175.286L1001.58 170.176L1006.68 165.077L1006.78 145.844L987.551 145.951L973.822 159.69L973.844 165.077L968.777 170.187Z" stroke="white" stroke-opacity="0.1" stroke-width="2.3388" stroke-miterlimit="10"/>
<path d="M944.797 194.167L939.687 199.234L934.14 199.17L920.571 212.941L920.465 232.164L939.687 232.068L944.797 226.958L949.906 232.068L969.129 232.164L969.033 212.941L955.293 199.202L949.906 199.234L944.797 194.167Z" stroke="white" stroke-opacity="0.1" stroke-width="2.3388" stroke-miterlimit="10"/>
<path d="M944.797 223.31L949.906 218.243L955.453 218.296L969.033 204.525L969.129 185.302L949.906 185.409L944.797 190.508L939.687 185.409L920.465 185.302L920.571 204.525L934.3 218.264L939.687 218.243L944.797 223.31Z" stroke="white" stroke-opacity="0.1" stroke-width="2.3388" stroke-miterlimit="10"/>
<path d="M1075.36 170.187L1070.3 165.077L1070.35 159.53L1056.59 145.951L1037.36 145.844L1037.46 165.077L1042.57 170.187L1037.46 175.286L1037.36 194.519L1056.59 194.412L1070.32 180.673L1070.3 175.297L1075.36 170.187Z" stroke="white" stroke-opacity="0.1" stroke-width="2.3388" stroke-miterlimit="10"/>
<path d="M1046.22 170.187L1051.29 175.297L1051.22 180.833L1065 194.412L1084.23 194.519L1084.12 175.286L1079.01 170.176L1084.12 165.077L1084.23 145.844L1065 145.951L1051.26 159.69L1051.29 165.077L1046.22 170.187Z" stroke="white" stroke-opacity="0.1" stroke-width="2.3388" stroke-miterlimit="10"/>
<path d="M1022.24 194.167L1017.13 199.234L1011.58 199.17L998.005 212.941L997.909 232.164L1017.13 232.068L1022.24 226.958L1027.35 232.068L1046.57 232.164L1046.47 212.941L1032.74 199.202L1027.35 199.234L1022.24 194.167Z" stroke="white" stroke-opacity="0.1" stroke-width="2.3388" stroke-miterlimit="10"/>
<path d="M1022.24 223.31L1027.35 218.243L1032.9 218.296L1046.47 204.525L1046.57 185.302L1027.35 185.409L1022.24 190.508L1017.13 185.409L997.909 185.302L998.005 204.525L1011.74 218.264L1017.13 218.243L1022.24 223.31Z" stroke="white" stroke-opacity="0.1" stroke-width="2.3388" stroke-miterlimit="10"/>
<path d="M1152.8 170.187L1147.73 165.077L1147.8 159.53L1134.02 145.951L1114.8 145.844L1114.91 165.077L1120.01 170.187L1114.91 175.286L1114.8 194.519L1134.02 194.412L1147.76 180.673L1147.73 175.297L1152.8 170.187Z" stroke="white" stroke-opacity="0.1" stroke-width="2.3388" stroke-miterlimit="10"/>
<path d="M1123.67 170.187L1128.73 175.297L1128.67 180.833L1142.44 194.412L1161.66 194.519L1161.57 175.286L1156.46 170.176L1161.57 165.077L1161.66 145.844L1142.44 145.951L1128.7 159.69L1128.73 165.077L1123.67 170.187Z" stroke="white" stroke-opacity="0.1" stroke-width="2.3388" stroke-miterlimit="10"/>
<path d="M1099.69 194.167L1094.57 199.234L1089.03 199.17L1075.45 212.941L1075.34 232.164L1094.58 232.068L1099.69 226.958L1104.78 232.068L1124.02 232.164L1123.91 212.941L1110.17 199.202L1104.8 199.234L1099.69 194.167Z" stroke="white" stroke-opacity="0.1" stroke-width="2.3388" stroke-miterlimit="10"/>
<path d="M1099.69 223.31L1104.8 218.243L1110.33 218.296L1123.91 204.525L1124.02 185.302L1104.78 185.409L1099.68 190.508L1094.58 185.409L1075.34 185.302L1075.45 204.525L1089.19 218.264L1094.57 218.243L1099.69 223.31Z" stroke="white" stroke-opacity="0.1" stroke-width="2.3388" stroke-miterlimit="10"/>
<path d="M765.597 247.738L760.53 242.629L760.594 237.092L746.822 223.513L727.6 223.406L727.696 242.639L732.806 247.749L727.696 252.848L727.6 272.081L746.822 271.974L760.562 258.235L760.53 252.858L765.597 247.738Z" stroke="white" stroke-opacity="0.1" stroke-width="2.3388" stroke-miterlimit="10"/>
<path d="M736.454 247.738L741.521 252.858L741.467 258.395L755.228 271.974L774.461 272.081L774.355 252.848L769.256 247.738L774.355 242.639L774.461 223.406L755.228 223.513L741.499 237.252L741.521 242.629L736.454 247.738Z" stroke="white" stroke-opacity="0.1" stroke-width="2.3388" stroke-miterlimit="10"/>
<path d="M712.473 271.729L707.364 276.796L701.817 276.732L688.248 290.503L688.141 309.726L707.364 309.619L712.473 304.52L717.583 309.619L736.806 309.726L736.71 290.503L722.97 276.764L717.583 276.796L712.473 271.729Z" stroke="white" stroke-opacity="0.1" stroke-width="2.3388" stroke-miterlimit="10"/>
<path d="M712.473 300.862L717.583 295.795L723.13 295.859L736.71 282.087L736.806 262.865L717.583 262.971L712.473 268.07L707.364 262.971L688.141 262.865L688.248 282.087L701.977 295.827L707.364 295.795L712.473 300.862Z" stroke="white" stroke-opacity="0.1" stroke-width="2.3388" stroke-miterlimit="10"/>
<path d="M843.041 247.738L837.974 242.629L838.028 237.092L824.267 223.513L805.034 223.406L805.14 242.639L810.25 247.749L805.14 252.848L805.034 272.081L824.267 271.974L837.996 258.235L837.974 252.858L843.041 247.738Z" stroke="white" stroke-opacity="0.1" stroke-width="2.3388" stroke-miterlimit="10"/>
<path d="M813.898 247.738L818.965 252.858L818.901 258.395L832.673 271.974L851.895 272.081L851.799 252.848L846.689 247.738L851.799 242.639L851.895 223.406L832.673 223.513L818.933 237.252L818.965 242.629L813.898 247.738Z" stroke="white" stroke-opacity="0.1" stroke-width="2.3388" stroke-miterlimit="10"/>
<path d="M789.918 271.729L784.808 276.796L779.261 276.732L765.682 290.503L765.586 309.726L784.808 309.619L789.918 304.52L795.028 309.619L814.25 309.726L814.144 290.503L800.415 276.764L795.028 276.796L789.918 271.729Z" stroke="white" stroke-opacity="0.1" stroke-width="2.3388" stroke-miterlimit="10"/>
<path d="M789.918 300.862L795.028 295.795L800.575 295.859L814.144 282.087L814.25 262.865L795.028 262.971L789.907 268.07L784.808 262.971L765.586 262.865L765.682 282.087L779.421 295.827L784.808 295.795L789.918 300.862Z" stroke="white" stroke-opacity="0.1" stroke-width="2.3388" stroke-miterlimit="10"/>
<path d="M920.475 247.738L915.408 242.629L915.472 237.092L901.701 223.513L882.478 223.406L882.585 242.639L887.684 247.749L882.585 252.848L882.478 272.081L901.701 271.974L915.44 258.235L915.408 252.858L920.475 247.738Z" stroke="white" stroke-opacity="0.1" stroke-width="2.3388" stroke-miterlimit="10"/>
<path d="M891.343 247.738L896.41 252.858L896.346 258.395L910.117 271.974L929.34 272.081L929.233 252.848L924.134 247.738L929.233 242.639L929.34 223.406L910.117 223.513L896.378 237.252L896.41 242.629L891.343 247.738Z" stroke="white" stroke-opacity="0.1" stroke-width="2.3388" stroke-miterlimit="10"/>
<path d="M867.352 271.729L862.242 276.796L856.706 276.732L843.127 290.503L843.02 309.726L862.253 309.619L867.363 304.52L872.462 309.619L891.695 309.726L891.588 290.503L877.849 276.764L872.473 276.796L867.352 271.729Z" stroke="white" stroke-opacity="0.1" stroke-width="2.3388" stroke-miterlimit="10"/>
<path d="M867.352 300.862L872.473 295.795L878.009 295.859L891.588 282.087L891.695 262.865L872.462 262.971L867.352 268.07L862.253 262.971L843.02 262.865L843.127 282.087L856.866 295.827L862.242 295.795L867.352 300.862Z" stroke="white" stroke-opacity="0.1" stroke-width="2.3388" stroke-miterlimit="10"/>
<path d="M997.92 247.738L992.853 242.629L992.917 237.092L979.146 223.513L959.923 223.406L960.019 242.639L965.129 247.749L960.019 252.848L959.923 272.081L979.146 271.974L992.885 258.235L992.853 252.858L997.92 247.738Z" stroke="white" stroke-opacity="0.1" stroke-width="2.3388" stroke-miterlimit="10"/>
<path d="M968.777 247.738L973.844 252.858L973.791 258.395L987.551 271.974L1006.78 272.081L1006.68 252.848L1001.58 247.738L1006.68 242.639L1006.78 223.406L987.551 223.513L973.822 237.252L973.844 242.629L968.777 247.738Z" stroke="white" stroke-opacity="0.1" stroke-width="2.3388" stroke-miterlimit="10"/>
<path d="M944.797 271.729L939.687 276.796L934.14 276.732L920.571 290.503L920.465 309.726L939.687 309.619L944.797 304.52L949.906 309.619L969.129 309.726L969.033 290.503L955.293 276.764L949.906 276.796L944.797 271.729Z" stroke="white" stroke-opacity="0.1" stroke-width="2.3388" stroke-miterlimit="10"/>
<path d="M944.797 300.862L949.906 295.795L955.453 295.859L969.033 282.087L969.129 262.865L949.906 262.971L944.797 268.07L939.687 262.971L920.465 262.865L920.571 282.087L934.3 295.827L939.687 295.795L944.797 300.862Z" stroke="white" stroke-opacity="0.1" stroke-width="2.3388" stroke-miterlimit="10"/>
<path d="M1075.36 247.738L1070.3 242.629L1070.35 237.092L1056.59 223.513L1037.36 223.406L1037.46 242.639L1042.57 247.749L1037.46 252.848L1037.36 272.081L1056.59 271.974L1070.32 258.235L1070.3 252.858L1075.36 247.738Z" stroke="white" stroke-opacity="0.1" stroke-width="2.3388" stroke-miterlimit="10"/>
<path d="M1046.22 247.738L1051.29 252.858L1051.22 258.395L1065 271.974L1084.23 272.081L1084.12 252.848L1079.01 247.738L1084.12 242.639L1084.23 223.406L1065 223.513L1051.26 237.252L1051.29 242.629L1046.22 247.738Z" stroke="white" stroke-opacity="0.1" stroke-width="2.3388" stroke-miterlimit="10"/>
<path d="M1022.24 271.729L1017.13 276.796L1011.58 276.732L998.005 290.503L997.909 309.726L1017.13 309.619L1022.24 304.52L1027.35 309.619L1046.57 309.726L1046.47 290.503L1032.74 276.764L1027.35 276.796L1022.24 271.729Z" stroke="white" stroke-opacity="0.1" stroke-width="2.3388" stroke-miterlimit="10"/>
<path d="M1022.24 300.862L1027.35 295.795L1032.9 295.859L1046.47 282.087L1046.57 262.865L1027.35 262.971L1022.24 268.07L1017.13 262.971L997.909 262.865L998.005 282.087L1011.74 295.827L1017.13 295.795L1022.24 300.862Z" stroke="white" stroke-opacity="0.1" stroke-width="2.3388" stroke-miterlimit="10"/>
<path d="M1152.8 247.738L1147.73 242.629L1147.8 237.092L1134.02 223.513L1114.8 223.406L1114.91 242.639L1120.01 247.749L1114.91 252.848L1114.8 272.081L1134.02 271.974L1147.76 258.235L1147.73 252.858L1152.8 247.738Z" stroke="white" stroke-opacity="0.1" stroke-width="2.3388" stroke-miterlimit="10"/>
<path d="M1123.67 247.738L1128.73 252.858L1128.67 258.395L1142.44 271.974L1161.66 272.081L1161.57 252.848L1156.46 247.738L1161.57 242.639L1161.66 223.406L1142.44 223.513L1128.7 237.252L1128.73 242.629L1123.67 247.738Z" stroke="white" stroke-opacity="0.1" stroke-width="2.3388" stroke-miterlimit="10"/>
<path d="M1099.69 271.729L1094.57 276.796L1089.03 276.732L1075.45 290.503L1075.34 309.726L1094.58 309.619L1099.69 304.52L1104.78 309.619L1124.02 309.726L1123.91 290.503L1110.17 276.764L1104.8 276.796L1099.69 271.729Z" stroke="white" stroke-opacity="0.1" stroke-width="2.3388" stroke-miterlimit="10"/>
<path d="M1099.69 300.862L1104.8 295.795L1110.33 295.859L1123.91 282.087L1124.02 262.865L1104.78 262.971L1099.68 268.07L1094.58 262.971L1075.34 262.865L1075.45 282.087L1089.19 295.827L1094.57 295.795L1099.69 300.862Z" stroke="white" stroke-opacity="0.1" stroke-width="2.3388" stroke-miterlimit="10"/>
<path d="M-36.809 326.036L-31.742 331.146L-31.7954 336.693L-18.0239 350.262L1.19858 350.368L1.09192 331.146L-4.00705 326.036L1.09192 320.927L1.19858 301.704L-18.0239 301.8L-31.7634 315.54L-31.742 320.927L-36.809 326.036Z" stroke="white" stroke-opacity="0.1" stroke-width="2.3388" stroke-miterlimit="10"/>
<path d="M69.7787 326.036L64.7118 320.927L64.7758 315.38L51.0043 301.8L31.7711 301.704L31.8778 320.927L36.9874 326.036L31.8778 331.146L31.7711 350.368L51.0043 350.262L64.7331 336.533L64.7118 331.146L69.7787 326.036Z" stroke="white" stroke-opacity="0.1" stroke-width="2.3388" stroke-miterlimit="10"/>
<path d="M40.6357 326.036L45.7027 331.146L45.6387 336.693L59.4102 350.262L78.6434 350.368L78.5367 331.146L73.427 326.036L78.5367 320.927L78.6434 301.704L59.4102 301.8L45.6707 315.54L45.7027 320.927L40.6357 326.036Z" stroke="white" stroke-opacity="0.1" stroke-width="2.3388" stroke-miterlimit="10"/>
<path d="M16.6556 379.159L21.7652 374.092L27.3122 374.156L40.881 360.385L40.9877 341.152L21.7652 341.258L16.6556 346.368L11.5459 341.258L-7.67657 341.152L-7.58057 360.385L6.15892 374.124L11.5459 374.092L16.6556 379.159Z" stroke="white" stroke-opacity="0.1" stroke-width="2.3388" stroke-miterlimit="10"/>
<path d="M147.223 326.036L142.146 320.927L142.21 315.38L128.438 301.8L109.216 301.704L109.322 320.927L114.421 326.036L109.322 331.146L109.216 350.368L128.438 350.262L142.178 336.533L142.146 331.146L147.223 326.036Z" stroke="white" stroke-opacity="0.1" stroke-width="2.3388" stroke-miterlimit="10"/>
<path d="M118.08 326.036L123.147 331.146L123.083 336.693L136.854 350.262L156.077 350.368L155.981 331.146L150.871 326.036L155.981 320.927L156.077 301.704L136.854 301.8L123.115 315.54L123.147 320.927L118.08 326.036Z" stroke="white" stroke-opacity="0.1" stroke-width="2.3388" stroke-miterlimit="10"/>
<path d="M94.0998 379.159L99.2094 374.092L104.746 374.156L118.325 360.385L118.432 341.152L99.1987 341.258L94.0891 346.368L88.9901 341.258L69.757 341.152L69.8636 360.385L83.6031 374.124L88.9901 374.092L94.0998 379.159Z" stroke="white" stroke-opacity="0.1" stroke-width="2.3388" stroke-miterlimit="10"/>
<path d="M224.656 326.036L219.59 320.927L219.654 315.38L205.882 301.8L186.66 301.704L186.756 320.927L191.865 326.036L186.756 331.146L186.66 350.368L205.882 350.262L219.622 336.533L219.59 331.146L224.656 326.036Z" stroke="white" stroke-opacity="0.1" stroke-width="2.3388" stroke-miterlimit="10"/>
<path d="M195.524 326.036L200.591 331.146L200.527 336.693L214.299 350.262L233.521 350.368L233.414 331.146L228.315 326.036L233.414 320.927L233.521 301.704L214.299 301.8L200.559 315.54L200.591 320.927L195.524 326.036Z" stroke="white" stroke-opacity="0.1" stroke-width="2.3388" stroke-miterlimit="10"/>
<path d="M171.534 379.159L176.643 374.092L182.19 374.156L195.77 360.385L195.876 341.152L176.643 341.258L171.534 346.368L166.424 341.258L147.201 341.152L147.308 360.385L161.048 374.124L166.424 374.092L171.534 379.159Z" stroke="white" stroke-opacity="0.1" stroke-width="2.3388" stroke-miterlimit="10"/>
<path d="M301.782 326.036L296.715 320.927L296.779 315.38L283.008 301.8L263.785 301.704L263.892 320.927L268.991 326.036L263.892 331.146L263.785 350.368L283.008 350.262L296.747 336.533L296.715 331.146L301.782 326.036Z" stroke="white" stroke-opacity="0.1" stroke-width="2.3388" stroke-miterlimit="10"/>
<path d="M272.649 326.036L277.716 331.146L277.652 336.693L291.424 350.262L310.646 350.368L310.539 331.146L305.44 326.036L310.539 320.927L310.646 301.704L291.424 301.8L277.684 315.54L277.716 320.927L272.649 326.036Z" stroke="white" stroke-opacity="0.1" stroke-width="2.3388" stroke-miterlimit="10"/>
<path d="M248.659 379.159L253.768 374.092L259.315 374.156L272.895 360.385L273.001 341.152L253.768 341.258L248.659 346.368L243.56 341.258L224.326 341.152L224.433 360.385L238.173 374.124L243.549 374.092L248.659 379.159Z" stroke="white" stroke-opacity="0.1" stroke-width="2.3388" stroke-miterlimit="10"/>
<path d="M379.227 326.036L374.16 320.927L374.224 315.38L360.452 301.8L341.23 301.704L341.326 320.927L346.436 326.036L341.326 331.146L341.23 350.368L360.452 350.262L374.192 336.533L374.16 331.146L379.227 326.036Z" stroke="white" stroke-opacity="0.1" stroke-width="2.3388" stroke-miterlimit="10"/>
<path d="M350.083 326.036L355.15 331.146L355.097 336.693L368.858 350.262L388.091 350.368L387.984 331.146L382.885 326.036L387.984 320.927L388.091 301.704L368.858 301.8L355.129 315.54L355.15 320.927L350.083 326.036Z" stroke="white" stroke-opacity="0.1" stroke-width="2.3388" stroke-miterlimit="10"/>
<path d="M326.103 379.159L331.213 374.092L336.76 374.156L350.34 360.385L350.435 341.152L331.213 341.258L326.103 346.368L320.994 341.258L301.771 341.152L301.878 360.385L315.607 374.124L320.994 374.092L326.103 379.159Z" stroke="white" stroke-opacity="0.1" stroke-width="2.3388" stroke-miterlimit="10"/>
<path d="M456.671 326.036L451.604 320.927L451.658 315.38L437.897 301.8L418.664 301.704L418.77 320.927L423.88 326.036L418.77 331.146L418.664 350.368L437.897 350.262L451.626 336.533L451.604 331.146L456.671 326.036Z" stroke="white" stroke-opacity="0.1" stroke-width="2.3388" stroke-miterlimit="10"/>
<path d="M427.528 326.036L432.595 331.146L432.531 336.693L446.303 350.262L465.536 350.368L465.429 331.146L460.319 326.036L465.429 320.927L465.536 301.704L446.303 301.8L432.563 315.54L432.595 320.927L427.528 326.036Z" stroke="white" stroke-opacity="0.1" stroke-width="2.3388" stroke-miterlimit="10"/>
<path d="M403.548 379.159L408.658 374.092L414.205 374.156L427.773 360.385L427.88 341.152L408.658 341.258L403.548 346.368L398.438 341.258L379.216 341.152L379.312 360.385L393.051 374.124L398.438 374.092L403.548 379.159Z" stroke="white" stroke-opacity="0.1" stroke-width="2.3388" stroke-miterlimit="10"/>
<path d="M534.105 326.036L529.038 320.927L529.102 315.38L515.331 301.8L496.108 301.704L496.215 320.927L501.314 326.036L496.215 331.146L496.108 350.368L515.331 350.262L529.07 336.533L529.038 331.146L534.105 326.036Z" stroke="white" stroke-opacity="0.1" stroke-width="2.3388" stroke-miterlimit="10"/>
<path d="M504.973 326.036L510.04 331.146L509.976 336.693L523.747 350.262L542.97 350.368L542.863 331.146L537.764 326.036L542.863 320.927L542.97 301.704L523.747 301.8L510.008 315.54L510.04 320.927L504.973 326.036Z" stroke="white" stroke-opacity="0.1" stroke-width="2.3388" stroke-miterlimit="10"/>
<path d="M480.982 379.159L486.102 374.092L491.639 374.156L505.218 360.385L505.325 341.152L486.092 341.258L480.982 346.368L475.883 341.258L456.65 341.152L456.757 360.385L470.496 374.124L475.872 374.092L480.982 379.159Z" stroke="white" stroke-opacity="0.1" stroke-width="2.3388" stroke-miterlimit="10"/>
<path d="M611.55 326.036L606.483 320.927L606.547 315.38L592.776 301.8L573.553 301.704L573.649 320.927L578.759 326.036L573.649 331.146L573.553 350.368L592.776 350.262L606.515 336.533L606.483 331.146L611.55 326.036Z" stroke="white" stroke-opacity="0.1" stroke-width="2.3388" stroke-miterlimit="10"/>
<path d="M582.407 326.036L587.474 331.146L587.421 336.693L601.192 350.262L620.415 350.368L620.308 331.146L615.209 326.036L620.308 320.927L620.415 301.704L601.192 301.8L587.453 315.54L587.474 320.927L582.407 326.036Z" stroke="white" stroke-opacity="0.1" stroke-width="2.3388" stroke-miterlimit="10"/>
<path d="M558.427 379.159L563.537 374.092L569.084 374.156L582.663 360.385L582.759 341.152L563.537 341.258L558.427 346.368L553.317 341.258L534.095 341.152L534.201 360.385L547.93 374.124L553.317 374.092L558.427 379.159Z" stroke="white" stroke-opacity="0.1" stroke-width="2.3388" stroke-miterlimit="10"/>
<path d="M688.995 326.036L683.928 320.927L683.981 315.38L670.22 301.8L650.987 301.704L651.094 320.927L656.203 326.036L651.094 331.146L650.987 350.368L670.22 350.262L683.949 336.533L683.928 331.146L688.995 326.036Z" stroke="white" stroke-opacity="0.1" stroke-width="2.3388" stroke-miterlimit="10"/>
<path d="M659.852 326.036L664.919 331.146L664.855 336.693L678.626 350.262L697.859 350.368L697.753 331.146L692.643 326.036L697.753 320.927L697.859 301.704L678.626 301.8L664.887 315.54L664.919 320.927L659.852 326.036Z" stroke="white" stroke-opacity="0.1" stroke-width="2.3388" stroke-miterlimit="10"/>
<path d="M635.871 379.159L640.981 374.092L646.528 374.156L660.097 360.385L660.204 341.152L640.981 341.258L635.871 346.368L630.762 341.258L611.539 341.152L611.635 360.385L625.375 374.124L630.762 374.092L635.871 379.159Z" stroke="white" stroke-opacity="0.1" stroke-width="2.3388" stroke-miterlimit="10"/>
<path d="M765.597 326.036L760.53 320.927L760.594 315.38L746.822 301.8L727.6 301.704L727.696 320.927L732.806 326.036L727.696 331.146L727.6 350.368L746.822 350.262L760.562 336.533L760.53 331.146L765.597 326.036Z" stroke="white" stroke-opacity="0.1" stroke-width="2.3388" stroke-miterlimit="10"/>
<path d="M736.453 326.036L741.52 331.146L741.467 336.693L755.228 350.262L774.461 350.368L774.354 331.146L769.255 326.036L774.354 320.927L774.461 301.704L755.228 301.8L741.499 315.54L741.52 320.927L736.453 326.036Z" stroke="white" stroke-opacity="0.1" stroke-width="2.3388" stroke-miterlimit="10"/>
<path d="M712.473 379.159L717.583 374.092L723.13 374.156L736.709 360.385L736.805 341.152L717.583 341.258L712.473 346.368L707.364 341.258L688.141 341.152L688.248 360.385L701.977 374.124L707.364 374.092L712.473 379.159Z" stroke="white" stroke-opacity="0.1" stroke-width="2.3388" stroke-miterlimit="10"/>
<path d="M843.041 326.036L837.974 320.927L838.028 315.38L824.267 301.8L805.034 301.704L805.14 320.927L810.25 326.036L805.14 331.146L805.034 350.368L824.267 350.262L837.996 336.533L837.974 331.146L843.041 326.036Z" stroke="white" stroke-opacity="0.1" stroke-width="2.3388" stroke-miterlimit="10"/>
<path d="M813.898 326.036L818.965 331.146L818.901 336.693L832.673 350.262L851.895 350.368L851.799 331.146L846.689 326.036L851.799 320.927L851.895 301.704L832.673 301.8L818.933 315.54L818.965 320.927L813.898 326.036Z" stroke="white" stroke-opacity="0.1" stroke-width="2.3388" stroke-miterlimit="10"/>
<path d="M789.918 379.159L795.028 374.092L800.575 374.156L814.144 360.385L814.25 341.152L795.028 341.258L789.907 346.368L784.808 341.258L765.586 341.152L765.682 360.385L779.421 374.124L784.808 374.092L789.918 379.159Z" stroke="white" stroke-opacity="0.1" stroke-width="2.3388" stroke-miterlimit="10"/>
<path d="M920.475 326.036L915.408 320.927L915.472 315.38L901.701 301.8L882.478 301.704L882.585 320.927L887.684 326.036L882.585 331.146L882.478 350.368L901.701 350.262L915.44 336.533L915.408 331.146L920.475 326.036Z" stroke="white" stroke-opacity="0.1" stroke-width="2.3388" stroke-miterlimit="10"/>
<path d="M891.343 326.036L896.41 331.146L896.346 336.693L910.117 350.262L929.34 350.368L929.233 331.146L924.134 326.036L929.233 320.927L929.34 301.704L910.117 301.8L896.378 315.54L896.41 320.927L891.343 326.036Z" stroke="white" stroke-opacity="0.1" stroke-width="2.3388" stroke-miterlimit="10"/>
<path d="M867.352 379.159L872.473 374.092L878.009 374.156L891.588 360.385L891.695 341.152L872.462 341.258L867.352 346.368L862.253 341.258L843.02 341.152L843.127 360.385L856.866 374.124L862.242 374.092L867.352 379.159Z" stroke="white" stroke-opacity="0.1" stroke-width="2.3388" stroke-miterlimit="10"/>
<path d="M997.92 326.036L992.853 320.927L992.917 315.38L979.146 301.8L959.923 301.704L960.019 320.927L965.129 326.036L960.019 331.146L959.923 350.368L979.146 350.262L992.885 336.533L992.853 331.146L997.92 326.036Z" stroke="white" stroke-opacity="0.1" stroke-width="2.3388" stroke-miterlimit="10"/>
<path d="M968.777 326.036L973.844 331.146L973.791 336.693L987.551 350.262L1006.78 350.368L1006.68 331.146L1001.58 326.036L1006.68 320.927L1006.78 301.704L987.551 301.8L973.822 315.54L973.844 320.927L968.777 326.036Z" stroke="white" stroke-opacity="0.1" stroke-width="2.3388" stroke-miterlimit="10"/>
<path d="M944.797 379.159L949.906 374.092L955.453 374.156L969.033 360.385L969.129 341.152L949.906 341.258L944.797 346.368L939.687 341.258L920.465 341.152L920.571 360.385L934.3 374.124L939.687 374.092L944.797 379.159Z" stroke="white" stroke-opacity="0.1" stroke-width="2.3388" stroke-miterlimit="10"/>
<path d="M1075.36 326.036L1070.3 320.927L1070.35 315.38L1056.59 301.8L1037.36 301.704L1037.46 320.927L1042.57 326.036L1037.46 331.146L1037.36 350.368L1056.59 350.262L1070.32 336.533L1070.3 331.146L1075.36 326.036Z" stroke="white" stroke-opacity="0.1" stroke-width="2.3388" stroke-miterlimit="10"/>
<path d="M1046.22 326.036L1051.29 331.146L1051.22 336.693L1065 350.262L1084.23 350.368L1084.12 331.146L1079.01 326.036L1084.12 320.927L1084.23 301.704L1065 301.8L1051.26 315.54L1051.29 320.927L1046.22 326.036Z" stroke="white" stroke-opacity="0.1" stroke-width="2.3388" stroke-miterlimit="10"/>
<path d="M1022.24 379.159L1027.35 374.092L1032.9 374.156L1046.47 360.385L1046.57 341.152L1027.35 341.258L1022.24 346.368L1017.13 341.258L997.909 341.152L998.005 360.385L1011.74 374.124L1017.13 374.092L1022.24 379.159Z" stroke="white" stroke-opacity="0.1" stroke-width="2.3388" stroke-miterlimit="10"/>
<path d="M1152.8 326.036L1147.73 320.927L1147.8 315.38L1134.02 301.8L1114.8 301.704L1114.91 320.927L1120.01 326.036L1114.91 331.146L1114.8 350.368L1134.02 350.262L1147.76 336.533L1147.73 331.146L1152.8 326.036Z" stroke="white" stroke-opacity="0.1" stroke-width="2.3388" stroke-miterlimit="10"/>
<path d="M1123.67 326.036L1128.73 331.146L1128.67 336.693L1142.44 350.262L1161.66 350.368L1161.57 331.146L1156.46 326.036L1161.57 320.927L1161.66 301.704L1142.44 301.8L1128.7 315.54L1128.73 320.927L1123.67 326.036Z" stroke="white" stroke-opacity="0.1" stroke-width="2.3388" stroke-miterlimit="10"/>
<path d="M1099.69 379.159L1104.8 374.092L1110.33 374.156L1123.91 360.385L1124.02 341.152L1104.78 341.258L1099.68 346.368L1094.58 341.258L1075.34 341.152L1075.45 360.385L1089.19 374.124L1094.57 374.092L1099.69 379.159Z" stroke="white" stroke-opacity="0.1" stroke-width="2.3388" stroke-miterlimit="10"/>
</g>
</svg>
