<svg width="30" height="30" viewBox="0 0 30 30" fill="none" xmlns="http://www.w3.org/2000/svg">
<path fill-rule="evenodd" clip-rule="evenodd" d="M23.5812 6.40477C24.1275 6.59602 24.4925 7.11102 24.4925 7.68977V16.156C24.4925 18.5223 23.6325 20.781 22.1137 22.531C21.35 23.4123 20.3838 24.0985 19.3575 24.6535L14.91 27.056L10.455 24.6523C9.4275 24.0973 8.46 23.4123 7.695 22.5298C6.175 20.7798 5.3125 18.5198 5.3125 16.151V7.68977C5.3125 7.11102 5.6775 6.59602 6.22375 6.40477L14.4512 3.51352C14.7437 3.41102 15.0625 3.41102 15.3537 3.51352L23.5812 6.40477Z" stroke="#3D16AD" stroke-width="2" stroke-linecap="round" stroke-linejoin="round"/>
<path d="M11.6533 14.8971L14.0183 17.2634L18.8908 12.3909" stroke="#3D16AD" stroke-width="2" stroke-linecap="round" stroke-linejoin="round"/>
</svg>
