<svg width="30" height="30" viewBox="0 0 30 30" fill="none" xmlns="http://www.w3.org/2000/svg">
<path d="M3.81787 19.6581C3.81787 19.6581 3.99537 21.8306 4.03662 22.5156C4.09162 23.4343 4.44662 24.4606 5.03912 25.1731C5.87537 26.1831 6.86037 26.5393 8.17537 26.5418C9.72162 26.5443 20.9654 26.5443 22.5116 26.5418C23.8266 26.5393 24.8116 26.1831 25.6479 25.1731C26.2404 24.4606 26.5954 23.4343 26.6516 22.5156C26.6916 21.8306 26.8691 19.6581 26.8691 19.6581" stroke="#3D16AD" stroke-width="2" stroke-linecap="round" stroke-linejoin="round"/>
<path d="M10.9326 6.97375V6.51C10.9326 4.985 12.1676 3.75 13.6926 3.75H16.9201C18.4439 3.75 19.6801 4.985 19.6801 6.51L19.6814 6.97375" stroke="#3D16AD" stroke-width="2" stroke-linecap="round" stroke-linejoin="round"/>
<path d="M15.3062 21.1596V19.5421" stroke="#3D16AD" stroke-width="2" stroke-linecap="round" stroke-linejoin="round"/>
<path fill-rule="evenodd" clip-rule="evenodd" d="M3.75 10.7982V15.132C6.1475 16.7132 9.02 17.8207 12.1725 18.2595C12.55 16.8832 13.7912 15.8745 15.3 15.8745C16.785 15.8745 18.0512 16.8832 18.4037 18.272C21.5687 17.8332 24.4525 16.7257 26.8625 15.132V10.7982C26.8625 8.68071 25.1587 6.97571 23.0412 6.97571H7.58375C5.46625 6.97571 3.75 8.68071 3.75 10.7982Z" stroke="#3D16AD" stroke-width="2" stroke-linecap="round" stroke-linejoin="round"/>
</svg>
