<svg width="27" height="28" viewBox="0 0 27 28" fill="none" xmlns="http://www.w3.org/2000/svg">
<path fill-rule="evenodd" clip-rule="evenodd" d="M8.11892 15.4886C7.31297 15.4886 6.6582 14.8339 6.6582 14.0279C6.6582 13.2243 7.31297 12.5696 8.11892 12.5696C8.92487 12.5696 9.57963 13.2243 9.57963 14.0279C9.57963 14.8339 8.92487 15.4886 8.11892 15.4886ZM13.7975 15.4886C12.9915 15.4886 12.3368 14.8339 12.3368 14.0279C12.3368 13.2243 12.9915 12.5696 13.7975 12.5696C14.6034 12.5696 15.2582 13.2243 15.2582 14.0279C15.2582 14.8339 14.6034 15.4886 13.7975 15.4886ZM18.0155 14.0279C18.0155 14.8339 18.6702 15.4886 19.4762 15.4886C20.2821 15.4886 20.9369 14.8339 20.9369 14.0279C20.9369 13.2243 20.2821 12.5696 19.4762 12.5696C18.6702 12.5696 18.0155 13.2243 18.0155 14.0279Z" fill="#3D16AD"/>
<path fill-rule="evenodd" clip-rule="evenodd" d="M13.525 1.25C6.2625 1.25 1 7.18265 1 13.7688C1 15.8719 1.6125 18.0364 2.6875 20.0144C2.8875 20.3411 2.9125 20.753 2.775 21.1423L1.9375 23.9465C1.75 24.6226 2.325 25.1221 2.9625 24.9218L5.4875 24.1719C6.175 23.9465 6.7125 24.2332 7.35 24.6226C9.175 25.6979 11.45 26.25 13.5 26.25C19.7 26.25 26 21.4553 26 13.7312C26 7.06998 20.625 1.25 13.525 1.25Z" stroke="#3D16AD" stroke-width="2" stroke-linecap="round" stroke-linejoin="round"/>
</svg>
