<svg width="58" height="58" viewBox="0 0 58 58" fill="none" xmlns="http://www.w3.org/2000/svg">
<path d="M23.4354 5.45083L23.144 5.04454L23.1057 5.07197L23.0733 5.10604L23.4354 5.45083ZM41.8587 39.9123L42.1676 40.3055L42.1833 40.2932L42.1979 40.2797L41.8587 39.9123ZM22.4188 21.8838L22.3405 22.3776L22.3558 22.38L22.3713 22.3815L22.4188 21.8838ZM10.1711 57.2257C10.4465 57.2049 10.6529 56.9649 10.6321 56.6895L10.2939 52.2022C10.2732 51.9269 10.0331 51.7205 9.75775 51.7412C9.48239 51.762 9.27599 52.002 9.29674 52.2774L9.59737 56.2661L5.60868 56.5667C5.33332 56.5875 5.12692 56.8275 5.14767 57.1029C5.16843 57.3782 5.40848 57.5846 5.68384 57.5639L10.1711 57.2257ZM57.7928 15.9531C56.6415 12.0465 52.3502 6.21833 46.1888 2.90925C39.9805 -0.42503 31.8595 -1.20707 23.144 5.04454L23.7268 5.85712C32.1056 -0.152943 39.8136 0.620474 45.7156 3.79024C51.6646 6.98521 55.765 12.6096 56.8336 16.2358L57.7928 15.9531ZM23.0733 5.10604C19.742 8.60458 15.1889 18.7156 22.7753 31.6168L23.6373 31.1099C16.2914 18.6177 20.7543 8.99156 23.7975 5.79562L23.0733 5.10604ZM22.7753 31.6168C26.5512 38.038 30.5323 40.9 34.0433 41.7986C37.5501 42.6962 40.5044 41.6121 42.1676 40.3055L41.5498 39.5191C40.1063 40.6531 37.4675 41.6428 34.2913 40.8299C31.1193 40.018 27.3275 37.3853 23.6373 31.1099L22.7753 31.6168ZM42.1979 40.2797C42.9632 39.573 43.4076 38.7329 43.557 37.8063C43.7051 36.8877 43.5588 35.9147 43.197 34.9356C42.4765 32.986 40.8712 30.9277 38.7755 29.0316C34.5831 25.2382 28.2539 21.9385 22.4663 21.386L22.3713 22.3815C27.8983 22.9091 34.0335 26.0894 38.1046 29.7731C40.1408 31.6154 41.617 33.545 42.259 35.2822C42.5784 36.1465 42.6835 36.9416 42.5698 37.6471C42.4573 38.3446 42.1265 38.9845 41.5195 39.545L42.1979 40.2797ZM22.4972 21.3899C15.3636 20.2582 6.8879 24.6093 2.84549 31.5063C0.813717 34.9728 -0.109874 39.0993 0.823415 43.5129C1.75604 47.9233 4.53186 52.57 9.80755 57.1062L10.4595 56.348C5.30718 51.9178 2.67854 47.4522 1.80178 43.306C0.925684 39.1629 1.78777 35.2886 3.70823 32.012C7.57028 25.4227 15.6653 21.3185 22.3405 22.3776L22.4972 21.3899Z" fill="white"/>
</svg>
